<?xml version="1.0" encoding="UTF-8"?>
<svg id="Capa_2" data-name="Capa 2" xmlns="http://www.w3.org/2000/svg" xmlns:xlink="http://www.w3.org/1999/xlink" viewBox="0 0 576.32 86.73">
  <defs>
    <style>
      .cls-1 {
        fill: #0c6698;
      }

      .cls-2 {
        fill: #0e7cb0;
      }

      .cls-3 {
        fill: #1f9cd4;
      }

      .cls-4 {
        fill: #0c6fa2;
      }

      .cls-5 {
        fill: #1a96cd;
      }

      .cls-6 {
        fill: #0d5a8b;
      }

      .cls-7 {
        fill: #0c689b;
      }

      .cls-8 {
        fill: #0d7aad;
      }

      .cls-9 {
        fill: #148dc2;
      }

      .cls-10 {
        fill: #138abf;
      }

      .cls-11 {
        fill: #0f81b6;
      }

      .cls-12 {
        fill: #0d5b8c;
      }

      .cls-13 {
        fill: #1791c7;
      }

      .cls-14 {
        fill: #219fd8;
      }

      .cls-15 {
        fill: #0d7aae;
      }

      .cls-16 {
        fill: #0c70a2;
      }

      .cls-17 {
        fill: #138ac0;
      }

      .cls-18 {
        fill: #0c6ea1;
      }

      .cls-19 {
        fill: #0d5e8f;
      }

      .cls-20 {
        fill: #0b6a9c;
      }

      .cls-21 {
        fill: #0f7fb3;
      }

      .cls-22 {
        fill: #0c73a6;
      }

      .cls-23 {
        fill: #158dc3;
      }

      .cls-24 {
        fill: #22a1d9;
      }

      .cls-25 {
        fill: #148cc2;
      }

      .cls-26 {
        fill: #1892c8;
      }

      .cls-27 {
        fill: #0c72a5;
      }

      .cls-28 {
        fill: #1994ca;
      }

      .cls-29 {
        fill: #0d5788;
      }

      .cls-30, .cls-31 {
        fill: #fff;
      }

      .cls-32 {
        fill: #0d6294;
      }

      .cls-33 {
        fill: #252d58;
      }

      .cls-34 {
        fill: #0d76aa;
      }

      .cls-35 {
        fill: #0c6597;
      }

      .cls-31 {
        fill-rule: evenodd;
      }

      .cls-36 {
        fill: #1083b7;
      }

      .cls-37 {
        fill: #0f80b4;
      }

      .cls-38 {
        fill: none;
      }

      .cls-39 {
        fill: #0e7eb2;
      }

      .cls-40 {
        fill: #1186ba;
      }

      .cls-41 {
        fill: #1186bb;
      }

      .cls-42 {
        fill: #1082b7;
      }

      .cls-43 {
        fill: #0d78ac;
      }

      .cls-44 {
        fill: #25a4dd;
      }

      .cls-45 {
        fill: #1187bc;
      }

      .cls-46 {
        fill: #24a4dc;
      }

      .cls-47 {
        fill: #0d6192;
      }

      .cls-48 {
        fill: #1d9ad1;
      }

      .cls-49 {
        fill: #0c71a4;
      }

      .cls-50 {
        fill: #1b97ce;
      }

      .cls-51 {
        clip-path: url(#clippath-1);
      }

      .cls-52 {
        fill: #0c6b9d;
      }

      .cls-53 {
        fill: #1790c6;
      }

      .cls-54 {
        fill: #1d9ad2;
      }

      .cls-55 {
        fill: #0d5d8e;
      }

      .cls-56 {
        fill: #1288bd;
      }

      .cls-57 {
        fill: #0d5e90;
      }

      .cls-58 {
        fill: #148bc1;
      }

      .cls-59 {
        fill: #0c689a;
      }

      .cls-60 {
        fill: #0c6c9e;
      }

      .cls-61 {
        fill: #0d5c8d;
      }

      .cls-62 {
        fill: #168fc6;
      }

      .cls-63 {
        fill: #1085ba;
      }

      .cls-64 {
        fill: #168fc5;
      }

      .cls-65 {
        fill: #22a0d8;
      }

      .cls-66 {
        fill: #0d5f90;
      }

      .cls-67 {
        fill: #0f81b5;
      }

      .cls-68 {
        fill: #0d6394;
      }

      .cls-69 {
        fill: #1b97cf;
      }

      .cls-70 {
        clip-path: url(#clippath-3);
      }

      .cls-71 {
        fill: #0d77aa;
      }

      .cls-72 {
        fill: #23a2da;
      }

      .cls-73 {
        fill: #0c6ea0;
      }

      .cls-74 {
        fill: #0d74a7;
      }

      .cls-75 {
        fill: #25a5de;
      }

      .cls-76 {
        fill: #1c99d0;
      }

      .cls-77 {
        fill: #1a95cc;
      }

      .cls-78 {
        fill: #0d5686;
      }

      .cls-79 {
        fill: #0c6799;
      }

      .cls-80 {
        fill: #0d6091;
      }

      .cls-81 {
        fill: #0d79ad;
      }

      .cls-82 {
        fill: #0c6c9f;
      }

      .cls-83 {
        fill: #1892c9;
      }

      .cls-84 {
        fill: #0c6496;
      }

      .cls-85 {
        fill: #1993ca;
      }

      .cls-86 {
        fill: #0d5989;
      }

      .cls-87 {
        fill: #0c6798;
      }

      .cls-88 {
        fill: #1c98cf;
      }

      .cls-89 {
        fill: #0b6a9d;
      }

      .cls-90 {
        fill: #1e9bd3;
      }

      .cls-91 {
        fill: #0c6d9f;
      }

      .cls-92 {
        fill: #0c699b;
      }

      .cls-93 {
        fill: #1083b8;
      }

      .cls-94 {
        fill: #26a7e0;
      }

      .cls-95 {
        fill: #1288be;
      }

      .cls-96 {
        fill: #0d6193;
      }

      .cls-97 {
        fill: #0d598a;
      }

      .cls-98 {
        fill: #23a2db;
      }

      .cls-99 {
        clip-path: url(#clippath-2);
      }

      .cls-100 {
        fill: #158ec4;
      }

      .cls-101 {
        fill: #1f9dd5;
      }

      .cls-102 {
        fill: #26a6df;
      }

      .cls-103 {
        fill: #1e9cd3;
      }

      .cls-104 {
        fill: #0c6596;
      }

      .cls-105 {
        fill: #0c72a4;
      }

      .cls-106 {
        fill: #209ed6;
      }

      .cls-107 {
        fill: #1084b9;
      }

      .cls-108 {
        fill: #0d5888;
      }

      .cls-109 {
        fill: #0d5787;
      }

      .cls-110 {
        fill: #1389be;
      }

      .cls-111 {
        fill: #0d76a9;
      }

      .cls-112 {
        clip-path: url(#clippath);
      }

      .cls-113 {
        fill: #0d78ab;
      }

      .cls-114 {
        fill: #0d5a8a;
      }

      .cls-115 {
        fill: #0d6395;
      }

      .cls-116 {
        fill: #1a94cb;
      }

      .cls-117 {
        fill: #0e7db1;
      }

      .cls-118 {
        fill: #0e7baf;
      }

      .cls-119 {
        fill: #24a3dc;
      }

      .cls-120 {
        fill: #0c70a3;
      }

      .cls-121 {
        fill: #209fd7;
      }

      .cls-122 {
        fill: #0d75a8;
      }
    </style>
    <clipPath id="clippath">
      <path class="cls-38" d="M295.28,31.65c-1.15,1.15-1.74,2.55-1.74,4.16v14.23c0,.9-.1,1.67-.29,2.31,0,.83-.27,1.69-.82,2.55-.55.86-1.46,1.71-2.74,2.55-1.09.58-2.53.86-4.33.86s-3.3-.27-4.33-.82c-1.03-.54-1.89-1.33-2.59-2.36-.45-.64-.83-1.57-1.15-2.78,0-1.02-.06-1.79-.2-2.31v-14.37c0-1.42-.55-2.71-1.67-3.89-1.11-1.17-2.43-1.76-3.98-1.76-1.42,0-2.78.55-4.07,1.67-1.11,1.11-1.67,2.44-1.67,3.98v14.31c0,1.62.06,2.8.2,3.54.12.75.42,1.8.88,3.15.71,2.39,1.85,4.56,3.44,6.5,1.59,1.94,3.67,3.62,6.26,5.04,1.29.58,2.75,1.06,4.36,1.45,1.61.39,3.33.58,5.14.58,3.81,0,7.01-.67,9.55-2.04,2.56-1.36,4.61-3.02,6.16-4.99,1.55-1.98,2.72-4.16,3.49-6.55.26-.97.48-2.08.68-3.34.2-1.26.29-2.38.29-3.34v-14.18c0-1.48-.59-2.84-1.74-4.06-1.16-1.22-2.55-1.84-4.16-1.84-1.48,0-2.9.58-4.26,1.74M371.06,32.44c-1.11,1.11-1.67,2.44-1.67,3.98v27.2c0,1.42.55,2.78,1.67,4.07,1.11,1.11,2.47,1.67,4.07,1.67,1.42,0,2.72-.55,3.88-1.67,1.17-1.11,1.76-2.47,1.76-4.07v-27.2c0-1.42-.55-2.71-1.67-3.89-1.11-1.17-2.43-1.76-3.97-1.76-1.42,0-2.78.55-4.07,1.67ZM405,30.24c-2.13,0-4.27.29-6.44.89-2.16.59-4.24,1.74-6.25,3.43-1.94,1.37-3.6,3.41-4.98,6.11-.63,1.13-1.11,2.47-1.45,4.04-.35,1.57-.51,3.25-.51,5.07,0,3.57.67,6.64,1.98,9.21.63,1.06,1.36,2.13,2.21,3.2.84,1.06,1.77,2,2.78,2.82,2,1.45,4.11,2.57,6.3,3.39,1,.25,2,.45,3.01.6,1,.16,2.13.3,3.39.43h14.62c1.41,0,2.71-.55,3.88-1.67,1.17-1.11,1.76-2.47,1.76-4.07,0-1.42-.55-2.71-1.67-3.88-1.11-1.18-2.44-1.76-3.97-1.76h-14.37l-2.31-.19c-.44-.06-.9-.18-1.35-.34-.44-.16-.93-.43-1.44-.82-.83-.58-1.61-1.37-2.31-2.39-.58-1.09-.87-2.6-.87-4.52,0-1.73.29-3.17.87-4.33.58-1.15,1.31-2.02,2.21-2.59.9-.58,1.86-.9,2.88-.97l2.31-.28h14.37c1.41,0,2.71-.55,3.88-1.67,1.17-1.11,1.76-2.47,1.76-4.07,0-1.42-.55-2.71-1.67-3.89-1.11-1.17-2.44-1.76-3.97-1.76h-14.62ZM431.75,32.44c-1.11,1.11-1.67,2.44-1.67,3.98v27.2c0,1.42.55,2.78,1.67,4.07,1.11,1.11,2.47,1.67,4.07,1.67,1.42,0,2.71-.55,3.88-1.67,1.17-1.11,1.76-2.47,1.76-4.07v-27.2c0-1.42-.55-2.71-1.67-3.89-1.11-1.17-2.44-1.76-3.98-1.76-1.42,0-2.78.55-4.07,1.67h0ZM500.56,32.62c-2.41,1.23-4.44,2.86-6.11,4.9-1.42,1.91-2.53,4.01-3.33,6.3-.25,1.05-.44,2.01-.59,2.91-.16.9-.29,1.99-.42,3.28,0,1.54.06,2.67.19,3.38.12.71.4,1.71.82,3.01.68,2.28,1.78,4.35,3.29,6.2,1.51,1.85,3.5,3.45,5.97,4.81,1.23.55,2.62,1.02,4.17,1.39,1.54.37,3.18.55,4.9.55s3.16-.76,4.49-2.3c.35-.4.63-.88.8-1.38.75-2.26.31-4.23-1.31-5.94-1.11-1.18-2.44-1.76-3.97-1.76-1.79,0-3.18-.27-4.17-.79-.99-.52-1.83-1.28-2.5-2.27-.43-.62-.8-1.51-1.11-2.68,0-.98-.06-1.73-.19-2.23l.19-2.22c.06-.5.17-.94.32-1.34.15-.4.42-.85.79-1.34.37-.5.69-.88.98-1.15.27-.27.73-.57,1.34-.88,1.11-.62,2.56-.92,4.35-.92s3.13.29,4.21.88c1.08.59,1.88,1.29,2.41,2.13.52.83.85,1.71.97,2.63l.28,2.22v13.6c0,1.42.55,2.78,1.67,4.07,1.11,1.11,2.47,1.67,4.07,1.67,1.46,0,2.78-.59,3.99-1.76,1.12-1.09,1.66-2.64,1.66-4.19v-13.38c0-2.03-.3-4.1-.92-6.2-.55-2.28-1.67-4.38-3.33-6.3-1.29-1.79-3.21-3.36-5.74-4.73-2.53-1.35-5.61-2.03-9.25-2.03s-6.48.62-8.89,1.85h-.03ZM371.05,17.23c-1.16,1.16-1.74,2.58-1.74,4.26,0,1.48.58,2.84,1.74,4.06,1.16,1.22,2.58,1.84,4.25,1.84,1.49,0,2.84-.59,4.06-1.74,1.22-1.16,1.84-2.55,1.84-4.16,0-1.48-.58-2.9-1.75-4.26-1.15-1.15-2.55-1.74-4.16-1.74-1.48,0-2.9.59-4.25,1.74h0ZM431,17.23c-1.16,1.16-1.74,2.58-1.74,4.26,0,1.48.58,2.84,1.74,4.06,1.15,1.22,2.58,1.84,4.26,1.84,1.49,0,2.84-.59,4.06-1.74,1.22-1.16,1.84-2.55,1.84-4.16,0-1.48-.58-2.9-1.74-4.26-1.16-1.15-2.55-1.74-4.16-1.74-1.48,0-2.9.59-4.26,1.74ZM311.65,4.44c-1.11,1.11-1.67,2.47-1.67,4.07v40.89c0,1.54.06,2.67.19,3.38.12.71.4,1.71.83,3.01.68,2.28,1.77,4.35,3.29,6.2,1.51,1.85,3.49,3.45,5.97,4.81,1.23.55,2.62,1.02,4.16,1.39,1.54.37,3.18.55,4.9.55,3.64,0,6.68-.65,9.12-1.94,2.44-1.29,4.39-2.88,5.87-4.76,1.48-1.89,2.59-3.96,3.33-6.24.25-.92.46-1.99.65-3.19.19-1.2.27-2.27.27-3.19,0-2.03-.31-4.1-.92-6.19-.56-2.28-1.67-4.38-3.33-6.29-1.29-1.79-3.21-3.36-5.74-4.73-2.53-1.35-5.61-2.03-9.25-2.03-1.42,0-2.78.55-4.07,1.67-1.11,1.11-1.67,2.44-1.67,3.98,0,1.42.56,2.78,1.67,4.07,1.11,1.11,2.47,1.67,4.07,1.67,1.72,0,3.13.29,4.21.88,1.08.59,1.88,1.29,2.4,2.13.52.83.85,1.71.98,2.63l.27,2.22c0,.87-.09,1.61-.27,2.22,0,.81-.27,1.62-.79,2.46-.52.83-1.4,1.65-2.63,2.45-1.05.56-2.44.83-4.16.83s-3.18-.27-4.17-.79c-.98-.52-1.82-1.28-2.5-2.27-.43-.62-.8-1.51-1.12-2.68,0-.98-.06-1.73-.19-2.22V8.52c0-1.42-.56-2.78-1.67-4.07-1.11-1.12-2.43-1.67-3.97-1.67-1.42,0-2.78.55-4.07,1.67h0ZM355.89,4.45c-1.11,1.11-1.67,2.47-1.67,4.06v54.47c0,1.42.55,2.78,1.67,4.07,1.11,1.11,2.47,1.66,4.07,1.66,1.46,0,2.79-.59,3.99-1.76,1.11-1.09,1.65-2.64,1.65-4.2V8.52c0-1.42-.56-2.78-1.67-4.06-1.1-1.12-2.43-1.67-3.97-1.67-1.42,0-2.78.55-4.07,1.67h0ZM475.99,4.44c-1.11,1.11-1.67,2.47-1.67,4.07v40.9c0,.87-.09,1.61-.27,2.23,0,.81-.27,1.62-.79,2.46-.52.83-1.4,1.65-2.63,2.45-1.05.56-2.44.83-4.17.83s-3.18-.27-4.16-.79c-.98-.52-1.82-1.28-2.5-2.27-.43-.62-.8-1.51-1.11-2.68,0-.98-.06-1.73-.19-2.23l.19-2.22c.06-.5.17-.94.33-1.34.15-.4.42-.85.78-1.34.37-.5.69-.88.98-1.15.27-.27.73-.57,1.34-.88,1.11-.62,2.55-.92,4.35-.92,1.42,0,2.71-.55,3.88-1.67,1.17-1.11,1.76-2.47,1.76-4.07,0-1.42-.56-2.71-1.67-3.89-1.11-1.17-2.44-1.76-3.98-1.76-3.52,0-6.48.62-8.88,1.85-2.41,1.23-4.44,2.86-6.11,4.9-1.42,1.91-2.53,4.01-3.33,6.29-.25,1.05-.45,2.01-.6,2.91-.15.9-.29,1.99-.42,3.28,0,1.54.06,2.67.19,3.38.12.71.4,1.71.83,3.01.67,2.28,1.77,4.35,3.29,6.2,1.51,1.85,3.49,3.45,5.97,4.81,1.23.55,2.62,1.02,4.16,1.39,1.53.37,3.18.55,4.9.55,3.64,0,6.68-.65,9.12-1.94,2.43-1.29,4.39-2.88,5.88-4.76,1.48-1.89,2.59-3.96,3.33-6.25.25-.92.46-1.99.65-3.19.19-1.2.27-2.27.27-3.19V8.5c0-1.42-.55-2.78-1.67-4.07-1.11-1.12-2.43-1.67-3.98-1.67-1.42,0-2.78.55-4.07,1.67h0ZM572.94,49.49V8.44c-.02-1.39-.57-2.73-1.67-4-1.11-1.12-2.44-1.67-3.98-1.67-1.42,0-2.77.55-4.07,1.67-1.11,1.11-1.66,2.47-1.66,4.07v40.9c0,.87-.09,1.61-.28,2.23,0,.81-.26,1.62-.79,2.46-.52.83-1.4,1.65-2.63,2.45-1.05.56-2.44.83-4.16.83s-3.18-.27-4.17-.79c-.98-.52-1.82-1.28-2.49-2.27-.43-.62-.81-1.51-1.11-2.68,0-.98-.06-1.73-.19-2.23l.19-2.22c.06-.5.17-.94.32-1.34.15-.4.42-.85.79-1.34.36-.5.69-.88.98-1.15.27-.27.73-.57,1.34-.88,1.11-.62,2.56-.92,4.35-.92,1.42,0,2.71-.55,3.88-1.67,1.17-1.11,1.76-2.47,1.76-4.07,0-1.42-.55-2.71-1.67-3.89-1.11-1.17-2.44-1.76-3.97-1.76-3.52,0-6.48.62-8.89,1.85-2.4,1.23-4.44,2.86-6.1,4.9-1.42,1.91-2.54,4.01-3.33,6.3-.25,1.05-.44,2.01-.6,2.91-.15.9-.29,1.99-.42,3.28,0,1.54.06,2.67.19,3.38.12.71.4,1.71.83,3.01.68,2.28,1.77,4.35,3.28,6.2,1.52,1.85,3.5,3.45,5.97,4.81,1.23.55,2.63,1.02,4.17,1.39,1.54.37,3.18.55,4.9.55,3.64,0,6.68-.65,9.12-1.94,2.44-1.29,4.39-2.88,5.88-4.76,1.48-1.89,2.59-3.96,3.33-6.25.25-.92.46-1.99.65-3.19.18-1.16.27-2.2.27-3.1h0ZM227.14,84.59h.14c1.39-.02,2.66-.59,3.82-1.74,1.17-1.15,1.76-2.55,1.76-4.16v-28.53l.19-2.31c.06-.51.17-.98.32-1.4.15-.42.42-.89.79-1.4.36-.51.69-.92.97-1.21.28-.28.73-.59,1.34-.92,1.11-.65,2.56-.97,4.35-.97s3.13.3,4.21.92c1.07.61,1.88,1.35,2.4,2.23.52.87.85,1.79.97,2.76l.27,2.31c0,.9-.09,1.68-.27,2.32,0,.84-.27,1.69-.78,2.56-.53.87-1.41,1.72-2.64,2.56-1.06.59-2.44.87-4.16.87-1.42,0-2.78.58-4.07,1.75-1.12,1.15-1.67,2.55-1.67,4.16,0,1.48.55,2.9,1.67,4.25,1.11,1.16,2.47,1.74,4.07,1.74,3.64,0,6.68-.67,9.11-2.03,2.44-1.35,4.4-3.02,5.87-4.98,1.48-1.97,2.59-4.14,3.33-6.53.25-.97.46-2.08.65-3.33.19-1.25.27-2.37.27-3.33,0-2.13-.31-4.28-.93-6.47-.56-2.39-1.67-4.58-3.33-6.57-1.29-1.87-3.2-3.51-5.73-4.94-2.53-1.41-5.61-2.12-9.25-2.12s-6.47.65-8.89,1.93c-2.4,1.29-4.44,3-6.1,5.13-1.42,2-2.53,4.19-3.33,6.57-.25,1.1-.45,2.11-.6,3.04-.15.93-.29,2.08-.42,3.43v28.53c0,1.48.55,2.84,1.66,4.06,1.09,1.21,2.43,1.82,4,1.84l.02-.02Z"/>
    </clipPath>
    <clipPath id="clippath-1">
      <rect class="cls-38" x="221.48" y="1.15" width="352.73" height="83.44"/>
    </clipPath>
    <clipPath id="clippath-2">
      <path class="cls-38" d="M25.68,56.9L3.78,45.62c6.32,45.63,65.75,41.93,70.11,1.66l-16.03-18.05-32.18,27.67h0Z"/>
    </clipPath>
    <clipPath id="clippath-3">
      <rect class="cls-38" x="3.77" y="29.32" width="69.98" height="62.11"/>
    </clipPath>
  </defs>
  <g id="Capa_1-2" data-name="Capa 1">
    <g>
      <path class="cls-30" d="M201.93,73.23c-2.49,0-4.73-.92-6.46-2.65-1.81-2.1-2.65-4.22-2.65-6.46l-.27-16.01c-.07-.55-.27-1.09-.61-1.62-.29-.46-.79-.88-1.5-1.27-1.39-.76-4.84-.75-6.24.04-.62.31-.78.45-.79.46-.22.22-.47.52-.76.91-.32.43-.42.65-.45.73-.06.15-.13.39-.17.74l-.17,2.19v14.15c0,2.34-.9,4.44-2.61,6.06-3.5,3.33-8.69,3.05-11.79-.05-.78-.92-1.37-1.83-1.77-2.75-.41.74-.95,1.43-1.6,2.05-3.52,3.33-8.68,3.05-11.78-.05-1.69-1.98-2.47-3.94-2.47-6.02v-8.88c-.18,1.02-.37,1.94-.59,2.76-.89,2.76-2.18,5.18-3.87,7.34-1.75,2.21-4.05,4.08-6.84,5.57-2.87,1.52-6.42,2.29-10.55,2.29-1.97,0-3.85-.21-5.61-.63-1.74-.41-3.33-.95-4.73-1.58-3.01-1.65-5.32-3.52-7.05-5.66-1.76-2.16-3.05-4.6-3.83-7.25-.47-1.37-.77-2.52-.92-3.32-.14-.85-.23-2.15-.23-3.94v-14.63c0-2.27.86-4.31,2.48-5.92,4.06-3.49,8.85-3.11,11.97.15.39.42.74.84,1.04,1.29.26-.36.55-.69.87-1.02,4.09-3.53,8.9-3.12,11.98.16.28.29.53.59.76.91.33-.52.73-1.02,1.2-1.48,1.83-1.58,3.66-2.36,5.59-2.46,2.3-.36,4.63.77,6.35,2.58,1.21,1.28,1.98,2.74,2.28,4.29.38-1.37,1.11-2.62,2.18-3.68.6-.52,1.21-.95,1.82-1.31-.85-.44-1.63-1.03-2.32-1.76-1.63-1.71-2.49-3.77-2.49-5.95,0-2.4.88-4.54,2.55-6.2,4.18-3.61,9.09-3.19,12.29,0,1.74,2.02,2.55,4.05,2.55,6.2,0,2.35-.93,4.48-2.69,6.15-.58.55-1.19,1.01-1.82,1.37.76.42,1.47.97,2.1,1.65,1.59,1.69,2.41,3.63,2.41,5.76v4.97c.92-2.28,2.04-4.27,3.39-6.08,2.05-2.51,4.5-4.48,7.35-5.95,2.89-1.49,6.45-2.25,10.57-2.25.07,0,.14,0,.22,0,4.18.03,7.81.85,10.8,2.45,3.01,1.61,5.34,3.55,6.94,5.76,1.87,2.13,3.25,4.74,3.94,7.55.68,2.3,1.05,4.75,1.05,7.15v13.99c0,2.52-.97,4.78-2.81,6.52-1.82,1.72-3.91,2.6-6.21,2.6ZM187.37,39.15c2.3,0,4.16.41,5.7,1.25,1.55.84,2.73,1.91,3.52,3.17.75,1.18,1.22,2.48,1.4,3.83l.29,2.32.02,14.39c0,.91.39,1.81,1.19,2.74.57.55,1.39.88,2.44.88.55,0,1.39-.11,2.44-1.1.74-.7,1.09-1.51,1.09-2.53v-13.99c0-1.88-.29-3.8-.85-5.72-.52-2.11-1.47-3.89-2.93-5.57-1.26-1.73-2.97-3.12-5.24-4.33-2.28-1.22-5.23-1.63-8.61-1.81-3.15.02-5.8.57-7.87,1.64-2.18,1.12-4.04,2.62-5.54,4.44-1.23,1.66-2.28,3.64-3.03,5.77-.16.76-.36,1.72-.51,2.61-.15.88-.29,1.96-.4,3.24v14.07c.01.74.34,1.49,1.03,2.3.44.43,1.1.69,1.98.69.45,0,1.15-.09,2-.91.62-.59.9-1.23.9-2.08l.19-16.89c.1-.84.27-1.53.51-2.17.25-.64.63-1.31,1.17-2.03.5-.66.91-1.15,1.28-1.51.48-.49,1.15-.95,2.1-1.43,1.45-.81,3.42-1.25,5.74-1.25ZM114.08,32.87c-.75,0-1.5.33-2.29,1-.44.45-.71,1.07-.71,1.89v14.63c0,1.36.04,2.35.14,2.97.11.59.36,1.48.75,2.63.61,2.05,1.56,3.85,2.86,5.45,1.29,1.59,3.05,3,5.26,4.22.88.4,2.14.81,3.54,1.14,1.35.32,2.8.48,4.34.48,3.23,0,5.91-.55,7.97-1.65,2.11-1.13,3.83-2.52,5.1-4.12,1.28-1.64,2.27-3.49,2.92-5.5.18-.71.38-1.71.55-2.81.16-1.06.25-2,.25-2.82v-14.63c0-.44-.09-1.14-.92-2.01-.54-.56-1.07-.84-1.75-.89-.8.08-1.62.28-2.49,1.02-.44.46-.71,1.09-.71,1.9v14.37c0,1.02-.1,1.92-.31,2.73-.08,1.21-.49,2.42-1.22,3.59-.78,1.23-1.95,2.34-3.57,3.39-1.74.93-3.52,1.31-5.83,1.31s-4.18-.38-5.62-1.14c-1.41-.75-2.61-1.83-3.56-3.22-.62-.87-1.14-2.08-1.55-3.65-.06-.23-.09-.46-.09-.69,0-1.09-.09-1.54-.12-1.66-.05-.21-.08-.43-.08-.65v-14.37c0-.44-.09-1.13-.91-2-.59-.62-1.21-.9-1.99-.9ZM158.31,33.6c-.74,0-1.49.33-2.29,1.01-.44.45-.7,1.07-.7,1.89v27.19c0,.74.33,1.49,1.01,2.3.44.43,1.1.69,1.98.69.45,0,1.14-.09,2-.91.62-.59.9-1.23.9-2.08v-27.19c0-.44-.09-1.13-.91-2-.59-.62-1.2-.9-1.98-.9ZM127.97,33.29c-.75,0-1.5.33-2.29,1-.44.46-.71,1.08-.71,1.89v13.6c0,.74.33,1.49,1.01,2.29.48.46,1.22.66,2.13.71.44-.02,1.07-.18,1.84-.91.63-.6.91-1.24.91-2.08v-13.6c0-.44-.09-1.13-.91-2-.59-.62-1.2-.9-1.98-.9ZM158.04,18.31c-.81,0-1.62.35-2.46,1.08-.5.5-.78,1.22-.78,2.18,0,.49.1,1.24.98,2.17.65.68,1.34.98,2.27.98.49,0,1.24-.1,2.18-.98.68-.64.98-1.31.98-2.17,0-.52-.11-1.34-1.09-2.47-.5-.5-1.19-.78-2.08-.78Z"/>
      <path class="cls-33" d="M187.45,29.99c3.8,0,7.03.71,9.68,2.13,2.64,1.42,4.65,3.06,6,4.93,1.74,2,2.9,4.19,3.49,6.57.64,2.19.97,4.35.97,6.48v14.35c0,1.6-.59,2.96-1.76,4.07-1.17,1.11-2.47,1.66-3.88,1.66-1.61,0-2.96-.55-4.07-1.66-1.11-1.3-1.67-2.65-1.67-4.07v-14.37l-.29-2.31c-.12-.96-.46-1.87-1.01-2.74-.54-.87-1.37-1.61-2.5-2.21-1.12-.61-2.58-.91-4.37-.91s-3.36.32-4.51.97c-.64.32-1.11.62-1.39.91-.29.29-.62.69-1.01,1.21-.38.51-.66.98-.82,1.39s-.27.89-.34,1.39l-.19,2.31v14.37c0,1.6-.59,2.96-1.76,4.07-1.17,1.11-2.47,1.66-3.89,1.66-1.6,0-2.96-.55-4.07-1.66-1.11-1.3-1.67-2.65-1.67-4.07v-14.35c.12-1.36.27-2.5.43-3.43.16-.93.37-1.95.63-3.04.84-2.39,2-4.58,3.48-6.57,1.74-2.13,3.87-3.84,6.39-5.13,2.51-1.29,5.61-1.93,9.28-1.93M158.04,15.57c1.61,0,3,.58,4.16,1.74,1.16,1.36,1.75,2.78,1.75,4.26,0,1.61-.61,3-1.84,4.16-1.22,1.16-2.58,1.74-4.06,1.74-1.68,0-3.1-.61-4.26-1.84-1.16-1.22-1.74-2.58-1.74-4.06,0-1.68.58-3.1,1.74-4.26,1.36-1.16,2.78-1.74,4.26-1.74h0ZM157.68,30.86c1.54,0,2.87.59,3.98,1.76,1.11,1.17,1.67,2.47,1.67,3.88v27.19c0,1.6-.59,2.96-1.76,4.07-1.17,1.11-2.47,1.66-3.88,1.66-1.6,0-2.96-.55-4.07-1.66-1.11-1.3-1.67-2.65-1.67-4.07v-27.19c0-1.54.55-2.86,1.67-3.98,1.29-1.11,2.65-1.67,4.07-1.67h0ZM128.6,55.52c-1.61,0-2.95-.56-4.07-1.67-1.11-1.29-1.67-2.65-1.67-4.07v-13.6c0-1.54.56-2.86,1.67-3.97,1.29-1.11,2.65-1.66,4.07-1.66,1.54,0,2.87.59,3.97,1.76,1.11,1.17,1.67,2.47,1.67,3.88v13.6c0,1.6-.59,2.95-1.76,4.07-1.17,1.11-2.47,1.67-3.88,1.67h0ZM142.51,30.11c1.54,0,2.86.59,3.98,1.76,1.11,1.17,1.67,2.47,1.67,3.89v14.31c0,.97-.1,2.08-.29,3.34-.2,1.26-.42,2.38-.68,3.35-.78,2.39-1.94,4.58-3.49,6.55-1.55,1.97-3.6,3.64-6.16,4.99-2.55,1.36-5.74,2.03-9.56,2.03-1.81,0-3.53-.2-5.14-.58-1.61-.39-3.08-.88-4.36-1.45-2.59-1.43-4.67-3.1-6.26-5.05-1.58-1.94-2.73-4.11-3.44-6.5-.45-1.36-.74-2.41-.88-3.16-.13-.74-.2-1.92-.2-3.54v-14.31c0-1.54.55-2.86,1.67-3.97,1.29-1.11,2.65-1.66,4.07-1.66,1.54,0,2.86.59,3.98,1.76,1.11,1.17,1.67,2.47,1.67,3.88v14.05c.13.55.2,1.38.2,2.48.35,1.31.75,2.31,1.24,3,.76,1.11,1.69,1.95,2.79,2.54,1.1.59,2.65.88,4.66.88s3.49-.31,4.66-.93c1.38-.9,2.36-1.81,2.95-2.75.59-.93.88-1.84.88-2.74.2-.69.31-1.52.31-2.48v-14.05c0-1.54.55-2.86,1.66-3.98,1.29-1.11,2.65-1.67,4.07-1.67h0Z"/>
      <path class="cls-30" d="M226.49,86.73h-.03c-2.33-.03-4.41-.98-6-2.74-1.57-1.74-2.37-3.72-2.37-5.9v-28.53c.14-1.67.29-2.89.45-3.87.16-.98.37-2.05.64-3.21.97-2.9,2.21-5.35,3.77-7.55,1.95-2.5,4.29-4.47,7.04-5.95,2.85-1.52,6.18-2.26,10.19-2.26s7.65.83,10.58,2.47c2.89,1.64,5.13,3.57,6.65,5.77,1.79,2.12,3.1,4.72,3.75,7.51.66,2.3,1,4.73,1,7.1,0,1.09-.1,2.34-.31,3.74-.2,1.36-.43,2.56-.7,3.61-.88,2.81-2.14,5.29-3.8,7.5-1.7,2.27-3.97,4.2-6.74,5.72-2.81,1.57-6.33,2.37-10.43,2.37-1.96,0-3.75-.62-5.22-1.82v7.37c0,2.34-.89,4.45-2.57,6.11-1.61,1.61-3.48,2.47-5.55,2.54-.12.01-.24.02-.35.02ZM240.18,32.19c-3.13,0-5.54.51-7.59,1.61-2.07,1.11-3.83,2.59-5.23,4.39-1.18,1.67-2.18,3.64-2.9,5.76-.16.76-.35,1.72-.49,2.6-.14.88-.28,1.97-.39,3.25v28.28c.01.8.31,1.51.96,2.22.52.57,1.07.86,1.77.92.07,0,.14,0,.21,0h.14c.39,0,1.05-.11,1.89-.95.66-.65.95-1.33.95-2.22l.19-31.07c.1-.86.26-1.52.48-2.12.27-.7.65-1.38,1.14-2.07.45-.64.87-1.15,1.22-1.51.52-.52,1.17-.98,2.02-1.43,2.82-1.65,8.17-1.75,11.22,0,1.5.86,2.64,1.93,3.4,3.2.71,1.18,1.17,2.47,1.34,3.81l.28,2.35c.02,1.3-.08,2.23-.27,3.04-.07,1.19-.46,2.39-1.15,3.57-.76,1.25-1.89,2.36-3.46,3.43-1.69.95-3.48,1.35-5.71,1.35-.73,0-1.46.34-2.23,1.04-.48.51-.76,1.22-.76,2.13,0,.84.34,1.66,1.04,2.52.45.46,1.1.73,1.95.73,3.16,0,5.77-.57,7.77-1.68,2.1-1.16,3.78-2.58,5.02-4.23,1.28-1.7,2.26-3.62,2.91-5.7.19-.75.38-1.77.55-2.92.17-1.1.25-2.08.25-2.93,0-1.86-.28-3.79-.83-5.72-.5-2.11-1.4-3.89-2.8-5.57-1.2-1.71-2.82-3.09-4.97-4.31-2.1-1.17-4.76-1.76-7.9-1.76ZM240.18,44.06c-1.28,0-2.31.2-2.97.59-.62.33-.79.49-.79.49-.17.18-.4.48-.67.85-.3.41-.42.67-.46.79-.06.18-.12.44-.16.77l-.17,2.19v7.26c1.68-1.29,3.41-1.9,5.23-1.9,1.23,0,2.21-.18,2.83-.53.91-.64,1.41-1.23,1.63-1.59.24-.41.38-.81.38-1.13,0-.25.03-.51.11-.76.11-.39.17-.91.17-1.57l-.25-1.99c-.07-.55-.28-1.12-.6-1.66-.27-.46-.75-.88-1.42-1.26-.67-.38-1.57-.56-2.85-.56ZM285.37,72.99c-2.06,0-4-.22-5.78-.65-1.77-.42-3.4-.97-4.85-1.61-3.09-1.7-5.47-3.62-7.26-5.82-1.81-2.21-3.14-4.72-3.95-7.46-.49-1.42-.81-2.63-.95-3.48-.15-.81-.23-2.15-.23-3.99v-14c0-2.42.92-4.62,2.66-6.36,4.42-3.79,9.56-3.35,12.88.16,1.72,1.82,2.6,3.91,2.6,6.21v13.75c.12.6.18,1.33.19,2.22.29,1,.54,1.43.65,1.58.49.71,1,1.2,1.63,1.52.28.15,1.15.5,3.05.5,1.32,0,2.37-.19,3.05-.54.95-.64,1.48-1.23,1.71-1.6.17-.27.39-.69.39-1.07,0-.27.04-.54.12-.8.08-.26.17-.74.17-1.51v-14.37c0-2.26.85-4.31,2.46-5.92.05-.05.09-.09.14-.13,3.74-3.26,8.74-3.02,11.84.27.26.28.5.56.72.85V8.51c0-2.32.85-4.4,2.48-6.01.13-.13.27-.25.43-.35,3.68-2.99,8.48-2.67,11.51.38,1.68,1.95,2.46,3.92,2.46,6v20.72c1.68-1.24,3.4-1.82,5.2-1.82,4.07,0,7.61.79,10.54,2.35,2.91,1.57,5.15,3.43,6.67,5.54,1.78,2.03,3.1,4.53,3.77,7.24.65,2.23,1,4.57,1,6.84,0,1.05-.1,2.26-.31,3.61-.2,1.31-.44,2.48-.71,3.48-.87,2.7-2.14,5.08-3.82,7.22-1.72,2.19-3.99,4.03-6.74,5.49-2.83,1.5-6.33,2.26-10.41,2.26-1.95,0-3.82-.21-5.55-.63-1.66-.4-3.22-.92-4.63-1.55-2.99-1.63-5.27-3.48-6.98-5.58-1.72-2.12-3-4.52-3.78-7.14-.06-.19-.12-.37-.18-.55-.1.48-.21.92-.32,1.35-.9,2.81-2.23,5.3-3.99,7.54-1.79,2.28-4.16,4.2-7.04,5.72-2.91,1.56-6.56,2.36-10.84,2.36ZM271.46,32.46c-.91,0-1.81.39-2.74,1.19-.56.57-.89,1.36-.89,2.34v14c0,1.4.04,2.42.15,3.06.11.68.38,1.58.77,2.75.64,2.17,1.6,3.98,2.97,5.65,1.35,1.66,3.19,3.13,5.46,4.38.93.41,2.24.84,3.68,1.19,1.37.33,2.88.5,4.5.5,3.36,0,6.14-.58,8.26-1.71,2.21-1.17,3.99-2.61,5.31-4.27,1.35-1.72,2.37-3.64,3.04-5.7.2-.75.4-1.78.59-2.94.17-1.09.26-2.06.26-2.92v-14.3c0-.44-.1-1.14-.92-2.01-1.11-1.18-2.6-1.26-4.14,0-.57.58-.83,1.21-.83,2.01v14.37c0,1-.1,1.91-.31,2.72-.08,1.21-.49,2.42-1.22,3.59-.78,1.23-1.95,2.33-3.57,3.38-1.72.92-3.55,1.31-5.83,1.31s-4.18-.38-5.61-1.13c-1.42-.74-2.62-1.84-3.58-3.25-.61-.86-1.13-2.06-1.54-3.63-.06-.23-.09-.46-.09-.7,0-1.14-.09-1.56-.11-1.63-.06-.22-.09-.45-.09-.68v-14.05c0-.55-.11-1.39-1.1-2.44-.72-.75-1.47-1.09-2.43-1.09ZM312.78,6.55c-.49.55-.7,1.16-.7,1.96v40.9c0,1.33.04,2.3.15,2.9.11.62.35,1.48.73,2.6.61,2.04,1.52,3.76,2.81,5.34,1.26,1.56,3,2.95,5.16,4.13.9.39,2.14.81,3.48,1.13,1.31.31,2.74.47,4.26.47,3.17,0,5.8-.55,7.83-1.62,2.08-1.1,3.76-2.46,5-4.04,1.27-1.62,2.24-3.44,2.87-5.39.19-.71.38-1.67.54-2.76.16-1.05.24-1.98.24-2.78,0-1.75-.27-3.58-.81-5.42-.49-1.99-1.38-3.67-2.76-5.25-1.19-1.63-2.81-2.95-4.97-4.11-2.11-1.13-4.79-1.7-7.95-1.7-.75,0-1.5.33-2.28,1-.45.46-.72,1.09-.72,1.91,0,.74.33,1.49,1.01,2.29.45.44,1.11.7,1.99.7,2.18,0,4.03.41,5.52,1.21,1.5.81,2.65,1.85,3.42,3.08.73,1.17,1.2,2.43,1.37,3.73l.28,2.25c.02,1.28-.08,2.19-.27,2.98-.08,1.2-.48,2.38-1.2,3.52-.74,1.17-1.9,2.27-3.46,3.28-1.66.9-3.45,1.28-5.65,1.28s-4.07-.37-5.45-1.1c-1.4-.75-2.57-1.81-3.49-3.16-.6-.85-1.08-1.97-1.5-3.5-.06-.24-.1-.48-.1-.72,0-1.07-.08-1.5-.1-1.61-.05-.2-.07-.41-.07-.62V8.52c0-.74-.33-1.49-1.01-2.29-.87-.85-2.55-1.11-4.17.29,0,0-.02.01-.02.02ZM323.65,51.25c.27.91.5,1.32.62,1.5.44.65.94,1.11,1.54,1.43.19.1,1.01.46,2.88.46,1.58,0,2.43-.28,2.87-.51.96-.63,1.43-1.21,1.61-1.5.17-.26.36-.64.36-.99,0-.27.04-.54.12-.79.1-.35.16-.83.16-1.43l-.25-1.88c-.07-.5-.26-1-.58-1.51-.27-.43-.73-.82-1.39-1.18-.66-.36-1.67-.55-2.9-.55-1.95,0-3.72-.6-5.2-1.76v6.61c.1.58.16,1.27.17,2.11ZM419.62,72.8h-14.31c-1.61-.14-2.82-.3-3.91-.47-1.12-.17-2.23-.4-3.35-.68-2.78-1.02-5.18-2.31-7.44-3.93-1.31-1.05-2.42-2.18-3.42-3.44-.95-1.19-1.78-2.4-2.49-3.6-.2-.39-.38-.78-.56-1.18v4.11c0,2.34-.9,4.44-2.62,6.06-3.49,3.34-8.68,3.06-11.78-.05-1.29-1.48-2.05-2.99-2.34-4.54-.39,1.47-1.13,2.8-2.17,3.82-3.53,3.48-8.78,3.23-11.92.09-1.69-1.94-2.47-3.91-2.47-6.01V8.51c0-2.31.85-4.39,2.47-6,.05-.05.1-.09.15-.14,3.74-3.23,8.71-2.97,11.79.15,1.67,1.93,2.46,3.9,2.46,5.99v8.59c.38-.65.84-1.26,1.4-1.81.05-.05.1-.1.16-.15,3.88-3.32,8.93-3.05,12.13.14,1.74,2,2.55,4.04,2.55,6.2,0,2.35-.93,4.47-2.69,6.15-.55.52-1.13.96-1.73,1.32.8.42,1.53.99,2.19,1.69,1.61,1.69,2.42,3.64,2.42,5.78v3.66c.16-.36.34-.7.52-1.03,1.58-3.09,3.6-5.54,5.96-7.21,2.18-1.86,4.7-3.24,7.3-3.95,2.35-.64,4.72-.98,7.06-1.01.1-.01.21-.02.31-.02h14.31c2.29,0,4.35.9,5.97,2.62.94.99,1.61,2.07,2,3.22.4-.79.93-1.52,1.59-2.18.05-.05.09-.09.14-.13.59-.51,1.19-.94,1.82-1.28-.77-.43-1.48-.98-2.12-1.65-1.65-1.74-2.49-3.74-2.49-5.95,0-2.43.85-4.51,2.54-6.2.05-.05.11-.1.16-.15,3.9-3.31,8.91-3.04,12.13.14,1.74,2.02,2.55,4.05,2.55,6.21,0,2.35-.93,4.48-2.69,6.15-.63.59-1.3,1.09-1.99,1.47.69.4,1.34.92,1.92,1.54,1.61,1.69,2.42,3.64,2.42,5.78v27.2c0,2.35-.9,4.44-2.61,6.06-3.49,3.33-8.67,3.07-11.78-.05-.71-.81-1.25-1.63-1.65-2.46-.43,1.2-1.15,2.29-2.13,3.21-1.65,1.58-3.65,2.42-5.77,2.42ZM405.61,32.33c-2,.22-4.14.27-6.22.83-1.82.5-3.64,1.51-5.4,3-1.81,1.3-3.26,3.09-4.48,5.46-.55.99-.96,2.15-1.27,3.52-.31,1.4-.47,2.96-.47,4.64,0,3.22.58,6,1.74,8.26.5.85,1.18,1.84,1.98,2.83.75.95,1.57,1.78,2.44,2.49,1.74,1.24,3.71,2.3,5.74,3.06.66.14,1.62.34,2.57.49.99.15,2.1.29,3.34.42h14.04c.44-.01,1.14-.11,1.99-.92.63-.6.91-1.24.91-2.09,0-.48-.1-1.14-.91-1.99-.59-.63-1.2-.91-1.99-.91l-16.76-.21c-.86-.12-1.53-.29-2.17-.52-.81-.3-1.58-.74-2.3-1.31-1.03-.69-2.11-1.8-3.07-3.19-1-1.85-1.41-3.86-1.41-6.42,0-2.29.41-4.27,1.22-5.89.84-1.67,1.96-2.97,3.33-3.87,1.37-.88,2.85-1.37,4.42-1.47l2.32-.29,14.39-.02c.44,0,1.14-.09,1.99-.91.63-.6.91-1.24.91-2.08,0-.44-.09-1.14-.92-2.01-.59-.62-1.2-.9-1.98-.9h-14ZM433.02,34.41c-.57.59-.83,1.21-.83,2.01v27.2c0,.75.33,1.5,1,2.28.46.45,1.12.72,1.99.72.45,0,1.14-.09,1.99-.91.63-.59.91-1.24.91-2.08v-27.2c0-.45-.09-1.14-.91-2.01-1.13-1.19-2.6-1.27-4.15,0ZM373.57,34.44c-.55.58-.8,1.19-.8,1.97v27.2c0,.75.33,1.5,1,2.28.46.45,1.11.72,1.99.72.44,0,1.14-.09,1.99-.91.63-.6.91-1.24.91-2.08v-27.2c0-.44-.09-1.14-.92-2.01-1.14-1.2-2.62-1.26-4.18.03ZM357.14,6.45c-.55.58-.8,1.21-.8,2.05v54.47c0,.75.33,1.5,1,2.28.46.44,1.11.71,1.99.71.46,0,1.17-.1,2.07-.98.53-.52.83-1.34.83-2.26V8.51c0-.74-.33-1.49-1-2.27-.85-.85-2.5-1.11-4.09.22ZM419.62,55.93c2.29,0,4.36.91,5.97,2.62.43.45.8.91,1.11,1.4v-20.23c-.36.57-.81,1.1-1.32,1.58-1.66,1.58-3.65,2.42-5.77,2.42h-14.05l-2.14.29c-.8.06-1.39.26-1.96.63-.53.34-1.01.92-1.4,1.71-.43.85-.64,2-.64,3.43,0,2.01.33,3.06.61,3.58.4.55,1,1.18,1.61,1.59.43.33.71.49.97.59.26.09.56.17.89.22l2.31.18h13.82ZM367.72,25.66v8.07c.4-1.2,1.09-2.29,2.04-3.24.05-.05.1-.09.15-.14.51-.44,1.03-.81,1.56-1.13-.88-.44-1.68-1.04-2.4-1.79-.54-.57-.99-1.16-1.35-1.78ZM432.88,19.24c-.59.63-.86,1.32-.86,2.24,0,.49.1,1.24.99,2.17.64.68,1.34.98,2.26.98.48,0,1.24-.1,2.18-.99.67-.64.97-1.31.97-2.16s-.35-1.63-1.08-2.47c-.96-.93-2.71-1.22-4.47.23ZM372.95,19.21c-.62.64-.89,1.34-.89,2.27,0,.49.1,1.24.98,2.18.64.68,1.35.98,2.27.98.48,0,1.24-.1,2.18-.99.67-.64.97-1.31.97-2.16s-.35-1.62-1.08-2.47c-.94-.92-2.7-1.22-4.43.19ZM523.69,72.1c-2.32,0-4.39-.85-6.01-2.47-.3-.34-.57-.69-.81-1.04-.07.09-.14.17-.21.26-1.9,2.18-4.05,3.24-6.57,3.24-1.96,0-3.83-.21-5.55-.63-1.66-.4-3.22-.92-4.64-1.55-2.99-1.63-5.27-3.48-6.98-5.58-1.73-2.13-3.01-4.53-3.79-7.14-.46-1.39-.76-2.52-.9-3.33-.14-.8-.23-2.08-.23-3.85.14-1.63.29-2.79.46-3.74.16-.94.36-1.97.62-3.08.99-2.85,2.24-5.21,3.81-7.31,1.97-2.42,4.33-4.31,7.06-5.71.07-.03.14-.07.21-.1,2.79-1.39,6.04-2.06,9.94-2.06s7.61.79,10.54,2.36c2.91,1.57,5.15,3.44,6.67,5.54,1.81,2.07,3.12,4.58,3.77,7.26.65,2.19,1,4.53,1,6.84v13.38c0,2.37-.91,4.62-2.49,6.16-1.73,1.68-3.72,2.54-5.91,2.54ZM510.09,39.41c2.21,0,4.02.39,5.52,1.21,1.5.81,2.65,1.85,3.42,3.09.74,1.17,1.2,2.44,1.36,3.75l.28,2.21.02,13.95c0,.75.33,1.5,1,2.28.46.45,1.12.72,1.99.72.46,0,1.18-.1,2.08-.98.52-.51.83-1.32.83-2.23v-13.38c0-1.78-.27-3.6-.81-5.42-.48-1.99-1.37-3.67-2.77-5.28-1.18-1.62-2.81-2.94-4.97-4.11-2.11-1.13-4.79-1.7-7.95-1.7s-5.57.49-7.63,1.55c-.06.03-.12.06-.19.09-2.01,1.05-3.67,2.4-5.07,4.11-1.16,1.56-2.15,3.44-2.88,5.47-.15.7-.33,1.61-.47,2.45-.14.85-.28,1.88-.39,3.09.01,1.06.05,2.03.16,2.64.11.63.36,1.5.73,2.63.59,1.99,1.54,3.75,2.81,5.32,1.26,1.55,3,2.94,5.16,4.13.91.39,2.15.81,3.49,1.13,1.3.32,2.74.47,4.26.47.65,0,1.39-.16,2.43-1.36.69-1.74.49-2.64-.44-3.63-.59-.63-1.2-.9-1.97-.9-2.27,0-4.05-.36-5.45-1.1-1.37-.72-2.54-1.78-3.48-3.14-.61-.87-1.1-2.03-1.5-3.53-.06-.23-.09-.47-.09-.7,0-1.09-.09-1.5-.1-1.56-.07-.29-.1-.59-.07-.89l.18-2.22c.1-.81.26-1.47.48-2.07.25-.65.64-1.32,1.15-2.02.47-.63.88-1.1,1.23-1.46.48-.48,1.13-.92,2.03-1.38,1.43-.8,3.29-1.22,5.6-1.22ZM505.06,51.85c.26.9.5,1.32.62,1.49.44.65.94,1.1,1.52,1.41.33.17,1.15.47,2.89.47,1.9,0,3.65.63,5.11,1.82l-.26-8.91c-.06-.52-.25-1.01-.57-1.52-.27-.43-.74-.83-1.39-1.18-1.37-.74-4.6-.71-5.92.03-.6.31-.76.44-.76.44-.19.19-.42.48-.7.85-.31.41-.4.63-.42.67-.07.18-.12.42-.16.69l-.14,1.72c.1.55.15,1.21.16,2ZM554.33,71.49c-1.96,0-3.83-.21-5.55-.63-1.65-.4-3.22-.92-4.64-1.55-2.97-1.62-5.25-3.46-6.98-5.58-1.73-2.13-3-4.53-3.78-7.15-.47-1.37-.77-2.51-.91-3.31-.14-.82-.23-2.1-.23-3.86.14-1.62.29-2.78.45-3.74.17-.97.38-1.99.64-3.09.96-2.8,2.21-5.17,3.8-7.3,1.96-2.41,4.3-4.3,7.05-5.71,2.79-1.43,6.2-2.16,10.14-2.16,1.91,0,3.66.63,5.12,1.83V8.5c0-2.32.85-4.4,2.46-6.01,4.08-3.53,8.85-3.1,11.94,0,1.65,1.9,2.44,3.84,2.46,5.9v41.09c0,.08,0,.17-.01.25-.02.97-.12,2.06-.31,3.28-.2,1.32-.44,2.48-.71,3.48-.87,2.7-2.14,5.09-3.82,7.24-1.72,2.18-3.99,4.03-6.76,5.49-2.82,1.5-6.32,2.26-10.39,2.26ZM554.33,32.91c-3.06,0-5.62.52-7.63,1.55-2.06,1.06-3.82,2.47-5.23,4.19-1.18,1.59-2.17,3.46-2.87,5.47-.16.73-.34,1.64-.5,2.49-.14.81-.27,1.85-.39,3.06.01,1.07.05,2.04.16,2.65.11.61.35,1.47.73,2.6.61,2.02,1.54,3.78,2.81,5.34,1.28,1.56,3.01,2.95,5.16,4.13.91.39,2.16.81,3.49,1.13,1.3.32,2.74.47,4.26.47,3.17,0,5.8-.54,7.82-1.62,2.09-1.11,3.78-2.47,5.02-4.04,1.29-1.65,2.23-3.42,2.87-5.4.18-.7.38-1.67.55-2.77.16-1.02.24-1.92.24-2.71,0-.06,0-.12,0-.18V8.43c0-.71-.33-1.44-1-2.21-.46-.45-1.09-.72-1.91-.72-.48,0-1.23.1-2.28,1-.44.45-.7,1.11-.7,1.99v40.91c0,1-.1,1.88-.3,2.66-.08,1.2-.49,2.37-1.21,3.51-.74,1.17-1.91,2.27-3.46,3.27-1.65.89-3.43,1.27-5.65,1.27s-4.07-.37-5.45-1.1c-1.39-.74-2.56-1.8-3.48-3.16-.61-.88-1.11-2.04-1.49-3.53-.06-.23-.09-.46-.09-.69,0-1.09-.09-1.48-.1-1.55-.08-.29-.1-.6-.08-.91l.19-2.22c.1-.81.26-1.47.48-2.07.29-.72.68-1.38,1.18-2.04.42-.57.83-1.05,1.17-1.4.53-.53,1.2-.98,2.08-1.42,1.43-.8,3.29-1.22,5.59-1.22.45,0,1.14-.09,1.99-.91.63-.59.91-1.23.91-2.08,0-.45-.09-1.14-.91-2.01-.59-.62-1.2-.9-1.98-.9ZM549.31,51.26c.25.88.49,1.3.62,1.48.44.65.93,1.1,1.52,1.41.21.11,1.02.46,2.88.46,1.58,0,2.43-.28,2.86-.51.96-.63,1.43-1.21,1.61-1.5.17-.27.36-.64.36-.99,0-.28.04-.56.13-.83.07-.23.16-.65.16-1.4v-6.96c-1.52,1.22-3.25,1.85-5.12,1.85-1.3,0-2.34.2-3.01.57-.6.31-.76.44-.77.45-.14.15-.39.44-.66.81-.3.39-.42.64-.46.74-.05.14-.11.38-.14.65l-.14,1.72c.1.56.15,1.21.16,2.02ZM573.58,49.48h.05-.05ZM465.83,71.49c-1.97,0-3.84-.21-5.55-.63-1.65-.4-3.21-.92-4.63-1.55-2.98-1.62-5.26-3.46-6.98-5.58-1.74-2.13-3.02-4.53-3.79-7.15-.46-1.37-.76-2.51-.9-3.31-.14-.82-.23-2.1-.23-3.86.14-1.63.29-2.78.45-3.74.17-.97.38-1.99.64-3.08.97-2.82,2.22-5.19,3.8-7.31,1.97-2.42,4.33-4.31,7.06-5.71,2.78-1.43,6.18-2.15,10.13-2.15,1.91,0,3.66.63,5.13,1.83V8.5c0-2.32.85-4.39,2.47-6.01.05-.05.09-.09.14-.13,3.74-3.25,8.67-3.01,11.79.14,1.68,1.93,2.46,3.9,2.46,6v40.91c0,1.04-.1,2.26-.31,3.61-.21,1.32-.44,2.48-.71,3.49-.87,2.7-2.14,5.09-3.82,7.23-1.73,2.18-4,4.02-6.75,5.49-2.84,1.5-6.34,2.26-10.41,2.26ZM465.82,32.91c-3.06,0-5.62.52-7.62,1.55-2.09,1.07-3.81,2.44-5.24,4.2-1.17,1.57-2.16,3.44-2.86,5.46-.16.72-.34,1.64-.49,2.49-.14.81-.27,1.84-.39,3.06.01,1.07.05,2.04.16,2.65.11.61.35,1.48.73,2.6.59,2.01,1.53,3.77,2.81,5.34,1.28,1.57,3.01,2.96,5.16,4.14.91.4,2.15.81,3.48,1.13,1.29.31,2.73.47,4.26.47,3.17,0,5.8-.55,7.83-1.62,2.08-1.11,3.77-2.47,5.02-4.04,1.28-1.64,2.22-3.41,2.86-5.39.19-.71.38-1.68.55-2.77.16-1.04.24-1.97.24-2.77V8.5c0-.75-.33-1.5-1-2.28-.86-.84-2.48-1.11-4.06.18-.57.59-.83,1.24-.83,2.1v40.91c0,.99-.09,1.86-.29,2.64-.08,1.18-.48,2.36-1.19,3.5-.76,1.19-1.92,2.29-3.47,3.29-1.65.9-3.44,1.28-5.66,1.28s-4.08-.37-5.45-1.11c-1.36-.71-2.53-1.77-3.47-3.14-.6-.86-1.1-2.02-1.5-3.53-.06-.23-.09-.47-.09-.7,0-1.09-.09-1.48-.1-1.55-.08-.29-.1-.6-.08-.91l.19-2.22c.1-.84.27-1.5.51-2.12.23-.61.62-1.28,1.14-1.97.47-.63.88-1.1,1.23-1.46.48-.49,1.15-.94,2.04-1.39,1.43-.8,3.29-1.22,5.58-1.22.45,0,1.14-.09,1.99-.91.63-.59.91-1.24.91-2.08,0-.44-.1-1.14-.92-2.01-.58-.62-1.2-.89-1.98-.89ZM460.8,51.25c.26.9.49,1.31.61,1.48.45.65.95,1.11,1.53,1.42.22.12,1.02.47,2.88.47,1.59,0,2.44-.28,2.88-.51.96-.63,1.43-1.22,1.61-1.5.23-.37.36-.71.36-.98s.04-.54.12-.8c.1-.35.16-.83.16-1.43v-6.96c-1.52,1.22-3.25,1.85-5.12,1.85-1.31,0-2.33.19-3,.57-.59.3-.75.44-.76.44-.19.19-.42.48-.7.85-.31.41-.4.63-.42.67-.08.21-.13.43-.17.69l-.14,1.72c.1.55.15,1.21.16,2.01Z"/>
      <g class="cls-112">
        <g class="cls-51">
          <rect class="cls-78" x="571.27" y="1.15" width="2.94" height="83.44"/>
          <rect class="cls-109" x="568.33" y="1.15" width="2.94" height="83.44"/>
          <rect class="cls-29" x="565.39" y="1.15" width="2.94" height="83.44"/>
          <rect class="cls-108" x="562.45" y="1.15" width="2.94" height="83.44"/>
          <rect class="cls-86" x="559.51" y="1.15" width="2.94" height="83.44"/>
          <rect class="cls-97" x="556.57" y="1.15" width="2.94" height="83.44"/>
          <rect class="cls-114" x="553.63" y="1.15" width="2.94" height="83.44"/>
          <rect class="cls-6" x="550.69" y="1.15" width="2.94" height="83.44"/>
          <rect class="cls-12" x="547.75" y="1.15" width="2.94" height="83.44"/>
          <rect class="cls-12" x="544.82" y="1.15" width="2.94" height="83.44"/>
          <rect class="cls-61" x="541.88" y="1.15" width="2.94" height="83.44"/>
          <rect class="cls-55" x="538.94" y="1.15" width="2.94" height="83.44"/>
          <rect class="cls-55" x="536" y="1.15" width="2.94" height="83.44"/>
          <rect class="cls-19" x="533.06" y="1.15" width="2.94" height="83.44"/>
          <rect class="cls-57" x="530.12" y="1.15" width="2.94" height="83.44"/>
          <rect class="cls-66" x="527.18" y="1.15" width="2.94" height="83.44"/>
          <rect class="cls-80" x="524.24" y="1.15" width="2.94" height="83.44"/>
          <rect class="cls-80" x="521.3" y="1.15" width="2.94" height="83.44"/>
          <rect class="cls-47" x="518.36" y="1.15" width="2.94" height="83.44"/>
          <rect class="cls-96" x="515.42" y="1.15" width="2.94" height="83.44"/>
          <rect class="cls-32" x="512.48" y="1.15" width="2.94" height="83.44"/>
          <rect class="cls-68" x="509.54" y="1.15" width="2.94" height="83.44"/>
          <rect class="cls-115" x="506.6" y="1.15" width="2.94" height="83.44"/>
          <rect class="cls-84" x="503.66" y="1.15" width="2.94" height="83.44"/>
          <rect class="cls-104" x="500.72" y="1.15" width="2.94" height="83.44"/>
          <rect class="cls-35" x="497.79" y="1.15" width="2.94" height="83.44"/>
          <rect class="cls-1" x="494.85" y="1.15" width="2.94" height="83.44"/>
          <rect class="cls-87" x="491.91" y="1.15" width="2.94" height="83.44"/>
          <rect class="cls-79" x="488.97" y="1.15" width="2.94" height="83.44"/>
          <rect class="cls-59" x="486.03" y="1.15" width="2.94" height="83.44"/>
          <rect class="cls-7" x="483.09" y="1.15" width="2.94" height="83.44"/>
          <rect class="cls-92" x="480.15" y="1.15" width="2.94" height="83.44"/>
          <rect class="cls-20" x="477.21" y="1.15" width="2.94" height="83.44"/>
          <rect class="cls-89" x="474.27" y="1.15" width="2.94" height="83.44"/>
          <rect class="cls-52" x="471.33" y="1.15" width="2.94" height="83.44"/>
          <rect class="cls-60" x="468.39" y="1.15" width="2.94" height="83.44"/>
          <rect class="cls-82" x="465.45" y="1.15" width="2.94" height="83.44"/>
          <rect class="cls-91" x="462.51" y="1.15" width="2.94" height="83.44"/>
          <rect class="cls-73" x="459.57" y="1.15" width="2.94" height="83.44"/>
          <rect class="cls-18" x="456.63" y="1.15" width="2.94" height="83.44"/>
          <rect class="cls-4" x="453.69" y="1.15" width="2.94" height="83.44"/>
          <rect class="cls-16" x="450.76" y="1.15" width="2.94" height="83.44"/>
          <rect class="cls-120" x="447.82" y="1.15" width="2.94" height="83.44"/>
          <rect class="cls-49" x="444.88" y="1.15" width="2.94" height="83.44"/>
          <rect class="cls-105" x="441.94" y="1.15" width="2.94" height="83.44"/>
          <rect class="cls-27" x="439" y="1.15" width="2.94" height="83.44"/>
          <rect class="cls-22" x="436.06" y="1.15" width="2.94" height="83.44"/>
          <rect class="cls-74" x="433.12" y="1.15" width="2.94" height="83.44"/>
          <rect class="cls-74" x="430.18" y="1.15" width="2.94" height="83.44"/>
          <rect class="cls-122" x="427.24" y="1.15" width="2.94" height="83.44"/>
          <rect class="cls-111" x="424.3" y="1.15" width="2.94" height="83.44"/>
          <rect class="cls-34" x="421.36" y="1.15" width="2.94" height="83.44"/>
          <rect class="cls-71" x="418.42" y="1.15" width="2.94" height="83.44"/>
          <rect class="cls-113" x="415.48" y="1.15" width="2.94" height="83.44"/>
          <rect class="cls-43" x="412.54" y="1.15" width="2.94" height="83.44"/>
          <rect class="cls-81" x="409.6" y="1.15" width="2.94" height="83.44"/>
          <rect class="cls-8" x="406.66" y="1.15" width="2.94" height="83.44"/>
          <rect class="cls-15" x="403.73" y="1.15" width="2.94" height="83.44"/>
          <rect class="cls-118" x="400.79" y="1.15" width="2.94" height="83.44"/>
          <rect class="cls-2" x="397.85" y="1.15" width="2.94" height="83.44"/>
          <rect class="cls-2" x="394.91" y="1.15" width="2.94" height="83.44"/>
          <rect class="cls-117" x="391.97" y="1.15" width="2.94" height="83.44"/>
          <rect class="cls-39" x="389.03" y="1.15" width="2.94" height="83.44"/>
          <rect class="cls-21" x="386.09" y="1.15" width="2.94" height="83.44"/>
          <rect class="cls-21" x="383.15" y="1.15" width="2.94" height="83.44"/>
          <rect class="cls-37" x="380.21" y="1.15" width="2.94" height="83.44"/>
          <rect class="cls-67" x="377.27" y="1.15" width="2.94" height="83.44"/>
          <rect class="cls-11" x="374.33" y="1.15" width="2.94" height="83.44"/>
          <rect class="cls-42" x="371.39" y="1.15" width="2.94" height="83.44"/>
          <rect class="cls-36" x="368.45" y="1.15" width="2.94" height="83.44"/>
          <rect class="cls-93" x="365.51" y="1.15" width="2.94" height="83.44"/>
          <rect class="cls-107" x="362.57" y="1.15" width="2.94" height="83.44"/>
          <rect class="cls-63" x="359.63" y="1.15" width="2.94" height="83.44"/>
          <rect class="cls-40" x="356.7" y="1.15" width="2.94" height="83.44"/>
          <rect class="cls-41" x="353.76" y="1.15" width="2.94" height="83.44"/>
          <rect class="cls-45" x="350.82" y="1.15" width="2.94" height="83.44"/>
          <rect class="cls-56" x="347.88" y="1.15" width="2.94" height="83.44"/>
          <rect class="cls-95" x="344.94" y="1.15" width="2.94" height="83.44"/>
          <rect class="cls-110" x="342" y="1.15" width="2.94" height="83.44"/>
          <rect class="cls-10" x="339.06" y="1.15" width="2.94" height="83.44"/>
          <rect class="cls-17" x="336.12" y="1.15" width="2.94" height="83.44"/>
          <rect class="cls-58" x="333.18" y="1.15" width="2.94" height="83.44"/>
          <rect class="cls-25" x="330.24" y="1.15" width="2.94" height="83.44"/>
          <rect class="cls-9" x="327.3" y="1.15" width="2.94" height="83.44"/>
          <rect class="cls-23" x="324.36" y="1.15" width="2.94" height="83.44"/>
          <rect class="cls-100" x="321.42" y="1.15" width="2.94" height="83.44"/>
          <rect class="cls-64" x="318.48" y="1.15" width="2.94" height="83.44"/>
          <rect class="cls-62" x="315.54" y="1.15" width="2.94" height="83.44"/>
          <rect class="cls-53" x="312.6" y="1.15" width="2.94" height="83.44"/>
          <rect class="cls-13" x="309.67" y="1.15" width="2.94" height="83.44"/>
          <rect class="cls-26" x="306.73" y="1.15" width="2.94" height="83.44"/>
          <rect class="cls-83" x="303.79" y="1.15" width="2.94" height="83.44"/>
          <rect class="cls-85" x="300.85" y="1.15" width="2.94" height="83.44"/>
          <rect class="cls-28" x="297.91" y="1.15" width="2.94" height="83.44"/>
          <rect class="cls-116" x="294.97" y="1.15" width="2.94" height="83.44"/>
          <rect class="cls-77" x="292.03" y="1.15" width="2.94" height="83.44"/>
          <rect class="cls-5" x="289.09" y="1.15" width="2.94" height="83.44"/>
          <rect class="cls-50" x="286.15" y="1.15" width="2.94" height="83.44"/>
          <rect class="cls-69" x="283.21" y="1.15" width="2.94" height="83.44"/>
          <rect class="cls-88" x="280.27" y="1.15" width="2.94" height="83.44"/>
          <rect class="cls-76" x="277.33" y="1.15" width="2.94" height="83.44"/>
          <rect class="cls-48" x="274.39" y="1.15" width="2.94" height="83.44"/>
          <rect class="cls-54" x="271.45" y="1.15" width="2.94" height="83.44"/>
          <rect class="cls-90" x="268.51" y="1.15" width="2.94" height="83.44"/>
          <rect class="cls-103" x="265.57" y="1.15" width="2.94" height="83.44"/>
          <rect class="cls-3" x="262.64" y="1.15" width="2.94" height="83.44"/>
          <rect class="cls-101" x="259.7" y="1.15" width="2.94" height="83.44"/>
          <rect class="cls-106" x="256.76" y="1.15" width="2.94" height="83.44"/>
          <rect class="cls-121" x="253.82" y="1.15" width="2.94" height="83.44"/>
          <rect class="cls-14" x="250.88" y="1.15" width="2.94" height="83.44"/>
          <rect class="cls-65" x="247.94" y="1.15" width="2.94" height="83.44"/>
          <rect class="cls-24" x="245" y="1.15" width="2.94" height="83.44"/>
          <rect class="cls-72" x="242.06" y="1.15" width="2.94" height="83.44"/>
          <rect class="cls-98" x="239.12" y="1.15" width="2.94" height="83.44"/>
          <rect class="cls-119" x="236.18" y="1.15" width="2.94" height="83.44"/>
          <rect class="cls-46" x="233.24" y="1.15" width="2.94" height="83.44"/>
          <rect class="cls-44" x="230.3" y="1.15" width="2.94" height="83.44"/>
          <rect class="cls-75" x="227.36" y="1.15" width="2.94" height="83.44"/>
          <rect class="cls-102" x="224.42" y="1.15" width="2.94" height="83.44"/>
          <rect class="cls-94" x="221.48" y="1.15" width="2.94" height="83.44"/>
        </g>
      </g>
    </g>
    <g>
      <path class="cls-31" d="M39.01,4.35c21.54,0,39.01,17.46,39.01,39.01s-17.46,39.01-39.01,39.01S0,64.91,0,43.36,17.46,4.35,39.01,4.35"/>
      <g class="cls-99">
        <g class="cls-70">
          <rect class="cls-78" x="3.77" y="29.32" width="69.98" height=".33"/>
          <rect class="cls-109" x="3.77" y="29.65" width="69.98" height=".33"/>
          <rect class="cls-29" x="3.77" y="29.98" width="69.98" height=".33"/>
          <rect class="cls-108" x="3.77" y="30.31" width="69.98" height=".33"/>
          <rect class="cls-86" x="3.77" y="30.64" width="69.98" height=".33"/>
          <rect class="cls-97" x="3.77" y="30.97" width="69.98" height=".33"/>
          <rect class="cls-114" x="3.77" y="31.3" width="69.98" height=".33"/>
          <rect class="cls-6" x="3.77" y="31.62" width="69.98" height=".33"/>
          <rect class="cls-12" x="3.77" y="31.95" width="69.98" height=".33"/>
          <rect class="cls-12" x="3.77" y="32.28" width="69.98" height=".33"/>
          <rect class="cls-61" x="3.77" y="32.61" width="69.98" height=".33"/>
          <rect class="cls-55" x="3.77" y="32.94" width="69.98" height=".33"/>
          <rect class="cls-55" x="3.77" y="33.27" width="69.98" height=".33"/>
          <rect class="cls-19" x="3.77" y="33.6" width="69.98" height=".33"/>
          <rect class="cls-57" x="3.77" y="33.93" width="69.98" height=".33"/>
          <rect class="cls-66" x="3.77" y="34.26" width="69.98" height=".33"/>
          <rect class="cls-80" x="3.77" y="34.59" width="69.98" height=".33"/>
          <rect class="cls-80" x="3.77" y="34.91" width="69.98" height=".33"/>
          <rect class="cls-47" x="3.77" y="35.24" width="69.98" height=".33"/>
          <rect class="cls-96" x="3.77" y="35.57" width="69.98" height=".33"/>
          <rect class="cls-32" x="3.77" y="35.9" width="69.98" height=".33"/>
          <rect class="cls-68" x="3.77" y="36.23" width="69.98" height=".33"/>
          <rect class="cls-115" x="3.77" y="36.56" width="69.98" height=".33"/>
          <rect class="cls-84" x="3.77" y="36.89" width="69.98" height=".33"/>
          <rect class="cls-104" x="3.77" y="37.22" width="69.98" height=".33"/>
          <rect class="cls-35" x="3.77" y="37.55" width="69.98" height=".33"/>
          <rect class="cls-1" x="3.77" y="37.87" width="69.98" height=".33"/>
          <rect class="cls-87" x="3.77" y="38.2" width="69.98" height=".33"/>
          <rect class="cls-79" x="3.77" y="38.53" width="69.98" height=".33"/>
          <rect class="cls-59" x="3.77" y="38.86" width="69.98" height=".33"/>
          <rect class="cls-7" x="3.77" y="39.19" width="69.98" height=".33"/>
          <rect class="cls-92" x="3.77" y="39.52" width="69.98" height=".33"/>
          <rect class="cls-20" x="3.77" y="39.85" width="69.98" height=".33"/>
          <rect class="cls-89" x="3.77" y="40.18" width="69.98" height=".33"/>
          <rect class="cls-52" x="3.77" y="40.51" width="69.98" height=".33"/>
          <rect class="cls-60" x="3.77" y="40.83" width="69.98" height=".33"/>
          <rect class="cls-82" x="3.77" y="41.16" width="69.98" height=".33"/>
          <rect class="cls-91" x="3.77" y="41.49" width="69.98" height=".33"/>
          <rect class="cls-73" x="3.77" y="41.82" width="69.98" height=".33"/>
          <rect class="cls-18" x="3.77" y="42.15" width="69.98" height=".33"/>
          <rect class="cls-4" x="3.77" y="42.48" width="69.98" height=".33"/>
          <rect class="cls-16" x="3.77" y="42.81" width="69.98" height=".33"/>
          <rect class="cls-120" x="3.77" y="43.14" width="69.98" height=".33"/>
          <rect class="cls-49" x="3.77" y="43.47" width="69.98" height=".33"/>
          <rect class="cls-105" x="3.77" y="43.79" width="69.98" height=".33"/>
          <rect class="cls-27" x="3.77" y="44.12" width="69.98" height=".33"/>
          <rect class="cls-22" x="3.77" y="44.45" width="69.98" height=".33"/>
          <rect class="cls-74" x="3.77" y="44.78" width="69.98" height=".33"/>
          <rect class="cls-74" x="3.77" y="45.11" width="69.98" height=".33"/>
          <rect class="cls-122" x="3.77" y="45.44" width="69.98" height=".33"/>
          <rect class="cls-111" x="3.77" y="45.77" width="69.98" height=".33"/>
          <rect class="cls-34" x="3.77" y="46.1" width="69.98" height=".33"/>
          <rect class="cls-71" x="3.77" y="46.43" width="69.98" height=".33"/>
          <rect class="cls-113" x="3.77" y="46.75" width="69.98" height=".33"/>
          <rect class="cls-43" x="3.77" y="47.08" width="69.98" height=".33"/>
          <rect class="cls-81" x="3.77" y="47.41" width="69.98" height=".33"/>
          <rect class="cls-8" x="3.77" y="47.74" width="69.98" height=".33"/>
          <rect class="cls-15" x="3.77" y="48.07" width="69.98" height=".33"/>
          <rect class="cls-118" x="3.77" y="48.4" width="69.98" height=".33"/>
          <rect class="cls-2" x="3.77" y="48.73" width="69.98" height=".33"/>
          <rect class="cls-2" x="3.77" y="49.06" width="69.98" height=".33"/>
          <rect class="cls-117" x="3.77" y="49.39" width="69.98" height=".33"/>
          <rect class="cls-39" x="3.77" y="49.71" width="69.98" height=".33"/>
          <rect class="cls-21" x="3.77" y="50.04" width="69.98" height=".33"/>
          <rect class="cls-21" x="3.77" y="50.37" width="69.98" height=".33"/>
          <rect class="cls-37" x="3.77" y="50.7" width="69.98" height=".33"/>
          <rect class="cls-67" x="3.77" y="51.03" width="69.98" height=".33"/>
          <rect class="cls-11" x="3.77" y="51.36" width="69.98" height=".33"/>
          <rect class="cls-42" x="3.77" y="51.69" width="69.98" height=".33"/>
          <rect class="cls-36" x="3.77" y="52.02" width="69.98" height=".33"/>
          <rect class="cls-93" x="3.77" y="52.35" width="69.98" height=".33"/>
          <rect class="cls-107" x="3.77" y="52.68" width="69.98" height=".33"/>
          <rect class="cls-63" x="3.77" y="53" width="69.98" height=".33"/>
          <rect class="cls-40" x="3.77" y="53.33" width="69.98" height=".33"/>
          <rect class="cls-41" x="3.77" y="53.66" width="69.98" height=".33"/>
          <rect class="cls-45" x="3.77" y="53.99" width="69.98" height=".33"/>
          <rect class="cls-56" x="3.77" y="54.32" width="69.98" height=".33"/>
          <rect class="cls-95" x="3.77" y="54.65" width="69.98" height=".33"/>
          <rect class="cls-110" x="3.77" y="54.98" width="69.98" height=".33"/>
          <rect class="cls-10" x="3.77" y="55.31" width="69.98" height=".33"/>
          <rect class="cls-17" x="3.77" y="55.64" width="69.98" height=".33"/>
          <rect class="cls-58" x="3.77" y="55.96" width="69.98" height=".33"/>
          <rect class="cls-25" x="3.77" y="56.29" width="69.98" height=".33"/>
          <rect class="cls-9" x="3.77" y="56.62" width="69.98" height=".33"/>
          <rect class="cls-23" x="3.77" y="56.95" width="69.98" height=".33"/>
          <rect class="cls-100" x="3.77" y="57.28" width="69.98" height=".33"/>
          <rect class="cls-64" x="3.77" y="57.61" width="69.98" height=".33"/>
          <rect class="cls-62" x="3.77" y="57.94" width="69.98" height=".33"/>
          <rect class="cls-53" x="3.77" y="58.27" width="69.98" height=".33"/>
          <rect class="cls-13" x="3.77" y="58.6" width="69.98" height=".33"/>
          <rect class="cls-26" x="3.77" y="58.92" width="69.98" height=".33"/>
          <rect class="cls-83" x="3.77" y="59.25" width="69.98" height=".33"/>
          <rect class="cls-85" x="3.77" y="59.58" width="69.98" height=".33"/>
          <rect class="cls-28" x="3.77" y="59.91" width="69.98" height=".33"/>
          <rect class="cls-116" x="3.77" y="60.24" width="69.98" height=".33"/>
          <rect class="cls-77" x="3.77" y="60.57" width="69.98" height=".33"/>
          <rect class="cls-5" x="3.77" y="60.9" width="69.98" height=".33"/>
          <rect class="cls-50" x="3.77" y="61.23" width="69.98" height=".33"/>
          <rect class="cls-69" x="3.77" y="61.56" width="69.98" height=".33"/>
          <rect class="cls-88" x="3.77" y="61.88" width="69.98" height=".33"/>
          <rect class="cls-76" x="3.77" y="62.21" width="69.98" height=".33"/>
          <rect class="cls-48" x="3.77" y="62.54" width="69.98" height=".33"/>
          <rect class="cls-54" x="3.77" y="62.87" width="69.98" height=".33"/>
          <rect class="cls-90" x="3.77" y="63.2" width="69.98" height=".33"/>
          <rect class="cls-103" x="3.77" y="63.53" width="69.98" height=".33"/>
          <rect class="cls-3" x="3.77" y="63.86" width="69.98" height=".33"/>
          <rect class="cls-101" x="3.77" y="64.19" width="69.98" height=".33"/>
          <rect class="cls-106" x="3.77" y="64.52" width="69.98" height=".33"/>
          <rect class="cls-121" x="3.77" y="64.84" width="69.98" height=".33"/>
          <rect class="cls-14" x="3.77" y="65.17" width="69.98" height=".33"/>
          <rect class="cls-65" x="3.77" y="65.5" width="69.98" height=".33"/>
          <rect class="cls-24" x="3.77" y="65.83" width="69.98" height=".33"/>
          <rect class="cls-72" x="3.77" y="66.16" width="69.98" height=".33"/>
          <rect class="cls-98" x="3.77" y="66.49" width="69.98" height=".33"/>
          <rect class="cls-119" x="3.77" y="66.82" width="69.98" height=".33"/>
          <rect class="cls-46" x="3.77" y="67.15" width="69.98" height=".33"/>
          <rect class="cls-44" x="3.77" y="67.48" width="69.98" height=".33"/>
          <rect class="cls-75" x="3.77" y="67.8" width="69.98" height=".33"/>
          <rect class="cls-102" x="3.77" y="68.13" width="69.98" height=".33"/>
          <rect class="cls-94" x="3.77" y="68.46" width="69.98" height=".33"/>
          <rect class="cls-94" x="3.77" y="68.79" width="69.98" height="22.64"/>
        </g>
      </g>
      <path class="cls-33" d="M3.78,45.62l21.9,11.28,26.21-23.16,22.26,12.56c1.8-20.38-14.63-37.97-33.83-38.24C20.82,7.78,2.7,23.06,3.78,45.62"/>
      <path class="cls-30" d="M19.78,48.96c-1.27-.94-2.03-2.17-2.26-3.71-.12-1.68.23-3.08,1.06-4.21l7.96-10.81c.9-1.23,2.12-1.95,3.65-2.19,1.68-.13,3.08.23,4.21,1.06,1.23.9,1.94,2.14,2.14,3.72.2,1.58-.12,2.94-.95,4.06l-7.96,10.81c-.94,1.28-2.2,2.01-3.78,2.21-1.58.2-2.94-.12-4.07-.95M66.27,30.12c2.8,2.06,4.8,4.34,5.97,6.81,1.18,2.48,1.76,4.77,1.74,6.89.2,2.42-.14,4.66-1,6.74-.71,1.97-1.65,3.73-2.8,5.3-.52.71-1.2,1.48-2.02,2.3-.83.82-1.6,1.52-2.31,2.09-1.87,1.34-3.9,2.31-6.11,2.92s-4.62.72-7.23.34c-2.61-.38-5.32-1.61-8.12-3.67-1.24-.91-1.97-2.1-2.19-3.59-.12-1.63.22-2.99,1.02-4.08.87-1.19,2.06-1.9,3.54-2.12,1.63-.12,2.99.22,4.08,1.02,1.33.98,2.56,1.55,3.68,1.72,1.41.08,2.55-.05,3.42-.39s1.54-.83,1.99-1.44c.49-.37.98-.89,1.48-1.55l1.05-1.87c.43-.78.68-1.64.75-2.58s-.15-1.94-.65-3c-.5-1.06-1.1-1.81-2.44-2.79-1.38-1.01-2.67-1.58-3.88-1.75-.65-.1-1.16-.14-1.53-.08s-.84.17-1.41.34-1.02.37-1.37.59c-.35.22-.7.49-1.01.85l-1.4,1.6-9.7,13.13c-.14.19-.29.37-.45.54l-.94,1.28c-.54.74-1.24,1.53-2.09,2.37-.85.85-1.64,1.57-2.38,2.16-1.93,1.38-4.03,2.39-6.3,3.02s-4.76.75-7.46.35c-2.69-.4-5.49-1.66-8.38-3.79-1.37-1.01-2.56-2.11-3.57-3.31-1.01-1.2-1.84-2.38-2.5-3.54-1.17-2.52-1.81-4.96-1.93-7.31-.23-4.54,1.29-8.91,3.95-12.52l7.96-10.81c.9-1.23,2.12-1.95,3.65-2.19,1.68-.13,3.08.23,4.21,1.06,1.23.9,1.94,2.14,2.14,3.72.2,1.58-.12,2.94-.95,4.06l-7.96,10.81c-.19.46-.57,1.09-1.15,1.87-.44,1.11-.67,2.04-.69,2.78-.04,1.18.18,2.27.66,3.26.48.99,1.43,2.01,2.85,3.06,1.37,1.01,2.64,1.6,3.8,1.77,1.45.08,2.63-.05,3.53-.41,1.37-.54,2.71-1.91,3.58-3.09l7.96-10.81c.06-.09.13-.17.2-.26l2.9-3.95c.74-1,1.56-1.69,2.18-2.29.63-.6,1.33-1.24,2.11-1.91,1.91-1.3,3.96-2.29,6.13-2.96,2.44-.63,4.93-.73,7.49-.32,2.55.41,5.18,1.62,7.89,3.61h.02Z"/>
    </g>
  </g>
</svg>