<?xml version="1.0" encoding="UTF-8"?>
<svg id="Capa_2" data-name="Capa 2" xmlns="http://www.w3.org/2000/svg" xmlns:xlink="http://www.w3.org/1999/xlink" viewBox="0 0 871.1 619.95">
  <defs>
    <style>
      .cls-1 {
        fill: #252d58;
      }

      .cls-2 {
        fill: url(#Degradado_sin_nombre_16);
      }

      .cls-3, .cls-4 {
        fill: #fff;
      }

      .cls-4 {
        fill-rule: evenodd;
      }

      .cls-5 {
        fill: none;
      }

      .cls-6 {
        clip-path: url(#clippath-1);
      }

      .cls-7 {
        fill: url(#Degradado_sin_nombre_16-2);
      }

      .cls-8 {
        clip-path: url(#clippath);
      }
    </style>
    <clipPath id="clippath">
      <path class="cls-5" d="M360.28,286.1l-119.23-61.41c34.41,248.43,357.97,228.28,381.71,9.04l-87.27-98.27-175.2,150.65Z"/>
    </clipPath>
    <linearGradient id="Degradado_sin_nombre_16" data-name="Degradado sin nombre 16" x1="8.03" y1="-19.69" x2="346.19" y2="-19.69" gradientTransform="translate(322.4 285.33) scale(1 -1)" gradientUnits="userSpaceOnUse">
      <stop offset="0" stop-color="#26a7e0"/>
      <stop offset="1" stop-color="#0d5686"/>
    </linearGradient>
    <clipPath id="clippath-1">
      <path class="cls-5" d="M351.62,514.4c-2.12,2.12-3.2,4.7-3.2,7.66v26.21c0,1.66-.18,3.08-.53,4.25,0,1.53-.5,3.11-1.51,4.7-1.01,1.58-2.69,3.15-5.05,4.7-2.01,1.07-4.66,1.58-7.98,1.58s-6.08-.5-7.98-1.51c-1.9-.99-3.48-2.45-4.77-4.35-.83-1.18-1.53-2.89-2.12-5.12,0-1.88-.11-3.3-.37-4.25v-26.47c0-2.62-1.01-4.99-3.08-7.17-2.04-2.16-4.48-3.24-7.33-3.24-2.62,0-5.12,1.01-7.5,3.08-2.04,2.04-3.08,4.49-3.08,7.33v26.36c0,2.98.11,5.16.37,6.52.22,1.38.77,3.32,1.62,5.8,1.31,4.4,3.41,8.4,6.34,11.97s6.76,6.67,11.53,9.28c2.38,1.07,5.07,1.95,8.03,2.67,2.97.72,6.13,1.07,9.47,1.07,7.02,0,12.91-1.23,17.59-3.76,4.72-2.51,8.49-5.56,11.35-9.19,2.86-3.65,5.01-7.66,6.43-12.06.48-1.79.88-3.83,1.25-6.15.37-2.32.53-4.38.53-6.15v-26.12c0-2.73-1.09-5.23-3.2-7.48-2.14-2.25-4.7-3.39-7.66-3.39-2.73,0-6.41.89-8.91,3.03l-.24.2ZM491.21,515.85c-2.04,2.04-3.08,4.49-3.08,7.33v50.1c0,2.62,1.01,5.12,3.08,7.5,2.04,2.04,4.55,3.08,7.5,3.08,2.62,0,5.01-1.01,7.15-3.08,2.16-2.04,3.24-4.55,3.24-7.5v-50.1c0-2.62-1.01-4.99-3.08-7.17-2.04-2.16-4.48-3.24-7.31-3.24-2.62,0-5.12,1.01-7.5,3.08ZM553.72,511.8c-3.92,0-7.87.53-11.86,1.64-3.98,1.09-7.81,3.2-11.51,6.32-3.57,2.52-6.63,6.28-9.17,11.25-1.16,2.08-2.04,4.55-2.67,7.44-.64,2.89-.94,5.99-.94,9.34,0,6.58,1.23,12.23,3.65,16.96,1.16,1.95,2.51,3.92,4.07,5.89,1.55,1.95,3.26,3.68,5.12,5.19,3.68,2.67,7.57,4.73,11.6,6.24,1.84.46,3.68.83,5.54,1.11,1.84.29,3.92.55,6.24.79h26.93c2.6,0,4.99-1.01,7.15-3.08,2.16-2.04,3.24-4.55,3.24-7.5,0-2.62-1.01-4.99-3.08-7.15-2.04-2.17-4.49-3.24-7.31-3.24h-26.47l-4.25-.35c-.81-.11-1.66-.33-2.49-.63-.81-.29-1.71-.79-2.65-1.51-1.53-1.07-2.97-2.52-4.25-4.4-1.07-2.01-1.6-4.79-1.6-8.33,0-3.19.53-5.84,1.6-7.98,1.07-2.12,2.41-3.72,4.07-4.77,1.66-1.07,3.43-1.66,5.3-1.79l4.25-.52h26.47c2.6,0,4.99-1.01,7.15-3.08,2.16-2.04,3.24-4.55,3.24-7.5,0-2.62-1.01-4.99-3.08-7.17-2.04-2.16-4.49-3.24-7.31-3.24h-26.93l-.06.02ZM602.99,515.85c-2.04,2.04-3.08,4.49-3.08,7.33v50.1c0,2.62,1.01,5.12,3.08,7.5,2.04,2.04,4.55,3.08,7.5,3.08,2.62,0,4.99-1.01,7.15-3.08,2.16-2.04,3.24-4.55,3.24-7.5v-50.1c0-2.62-1.01-4.99-3.08-7.17-2.04-2.16-4.49-3.24-7.33-3.24-2.62,0-5.12,1.01-7.5,3.08h.02ZM729.74,516.18c-4.44,2.27-8.18,5.27-11.25,9.03-2.62,3.52-4.66,7.39-6.13,11.6-.46,1.93-.81,3.7-1.09,5.36-.29,1.66-.53,3.67-.77,6.04,0,2.84.11,4.92.35,6.23.22,1.31.74,3.15,1.51,5.54,1.25,4.2,3.28,8.01,6.06,11.42,2.78,3.41,6.45,6.35,11,8.86,2.27,1.01,4.83,1.88,7.68,2.56,2.84.68,5.86,1.01,9.03,1.01s5.82-1.4,8.27-4.24c.64-.74,1.16-1.62,1.47-2.54,1.38-4.16.57-7.79-2.41-10.94-2.04-2.17-4.49-3.24-7.31-3.24-3.3,0-5.86-.5-7.68-1.46-1.82-.96-3.37-2.36-4.6-4.18-.79-1.14-1.47-2.78-2.04-4.94,0-1.81-.11-3.19-.35-4.11l.35-4.09c.11-.92.31-1.73.59-2.47s.77-1.57,1.46-2.47c.68-.92,1.27-1.62,1.81-2.12.5-.5,1.34-1.05,2.47-1.62,2.04-1.14,4.72-1.69,8.01-1.69s5.77.53,7.75,1.62c1.99,1.09,3.46,2.38,4.44,3.92.96,1.53,1.57,3.15,1.79,4.84l.52,4.09v25.05c0,2.62,1.01,5.12,3.08,7.5,2.04,2.04,4.55,3.08,7.5,3.08,2.69,0,5.12-1.09,7.35-3.24,2.06-2.01,3.06-4.86,3.06-7.72v-24.65c0-3.74-.55-7.55-1.69-11.42-1.01-4.2-3.08-8.07-6.13-11.6-2.38-3.3-5.91-6.19-10.57-8.71-4.66-2.49-10.33-3.74-17.04-3.74s-11.94,1.14-16.38,3.41h-.06v.02ZM491.19,487.84c-2.14,2.14-3.2,4.75-3.2,7.85,0,2.73,1.07,5.23,3.2,7.48,2.14,2.25,4.75,3.39,7.83,3.39,2.74,0,5.23-1.09,7.48-3.2,2.25-2.14,3.39-4.7,3.39-7.66,0-2.73-1.07-5.34-3.22-7.85-2.12-2.12-4.7-3.2-7.66-3.2-2.73,0-5.34,1.09-7.83,3.2h.02ZM601.61,487.84c-2.14,2.14-3.2,4.75-3.2,7.85,0,2.73,1.07,5.23,3.2,7.48,2.12,2.25,4.75,3.39,7.85,3.39,2.74,0,5.23-1.09,7.48-3.2,2.25-2.14,3.39-4.7,3.39-7.66,0-2.73-1.07-5.34-3.2-7.85-2.14-2.12-4.7-3.2-7.66-3.2-2.73,0-5.34,1.09-7.85,3.2ZM381.77,464.28c-2.04,2.04-3.08,4.55-3.08,7.5v75.32c0,2.84.11,4.92.35,6.23.22,1.31.74,3.15,1.53,5.54,1.25,4.2,3.26,8.01,6.06,11.42,2.78,3.41,6.43,6.35,11,8.86,2.27,1.01,4.83,1.88,7.66,2.56,2.84.68,5.86,1.01,9.03,1.01,6.7,0,12.3-1.2,16.8-3.57,4.49-2.38,8.09-5.3,10.81-8.77,2.73-3.48,4.77-7.29,6.13-11.49.46-1.69.85-3.67,1.2-5.88.35-2.21.5-4.18.5-5.88,0-3.74-.57-7.55-1.69-11.4-1.03-4.2-3.08-8.07-6.13-11.59-2.38-3.3-5.91-6.19-10.57-8.71-4.66-2.49-10.33-3.74-17.04-3.74-2.62,0-5.12,1.01-7.5,3.08-2.04,2.04-3.08,4.49-3.08,7.33,0,2.62,1.03,5.12,3.08,7.5,2.04,2.04,4.55,3.08,7.5,3.08,3.17,0,5.77.53,7.75,1.62,1.99,1.09,3.46,2.38,4.42,3.92.96,1.53,1.57,3.15,1.81,4.84l.5,4.09c0,1.6-.17,2.97-.5,4.09,0,1.49-.5,2.98-1.46,4.53-.96,1.53-2.58,3.04-4.84,4.51-1.93,1.03-4.49,1.53-7.66,1.53s-5.86-.5-7.68-1.46c-1.81-.96-3.35-2.36-4.6-4.18-.79-1.14-1.47-2.78-2.06-4.94,0-1.81-.11-3.19-.35-4.09v-75.35c0-2.62-1.03-5.12-3.08-7.5-2.04-2.06-4.48-3.08-7.31-3.08-2.62,0-5.12,1.01-7.5,3.08l.02-.02ZM463.26,464.3c-2.04,2.04-3.08,4.55-3.08,7.48v100.33c0,2.62,1.01,5.12,3.08,7.5,2.04,2.04,4.55,3.06,7.5,3.06,2.69,0,5.14-1.09,7.35-3.24,2.04-2.01,3.04-4.86,3.04-7.74v-99.89c0-2.62-1.03-5.12-3.08-7.48-2.03-2.06-4.48-3.08-7.31-3.08-2.62,0-5.12,1.01-7.5,3.08v-.02ZM684.48,464.28c-2.04,2.04-3.08,4.55-3.08,7.5v75.34c0,1.6-.17,2.97-.5,4.11,0,1.49-.5,2.98-1.46,4.53-.96,1.53-2.58,3.04-4.84,4.51-1.93,1.03-4.49,1.53-7.68,1.53s-5.86-.5-7.66-1.46c-1.81-.96-3.35-2.36-4.6-4.18-.79-1.14-1.47-2.78-2.04-4.94,0-1.81-.11-3.19-.35-4.11l.35-4.09c.11-.92.31-1.73.61-2.47.28-.74.77-1.57,1.44-2.47.68-.92,1.27-1.62,1.81-2.12.5-.5,1.34-1.05,2.47-1.62,2.04-1.14,4.7-1.69,8.01-1.69,2.62,0,4.99-1.01,7.15-3.08,2.16-2.04,3.24-4.55,3.24-7.5,0-2.62-1.03-4.99-3.08-7.17-2.04-2.16-4.49-3.24-7.33-3.24-6.48,0-11.94,1.14-16.36,3.41-4.44,2.27-8.18,5.27-11.25,9.03-2.62,3.52-4.66,7.39-6.13,11.59-.46,1.93-.83,3.7-1.11,5.36-.28,1.66-.53,3.67-.77,6.04,0,2.84.11,4.92.35,6.23.22,1.31.74,3.15,1.53,5.54,1.23,4.2,3.26,8.01,6.06,11.42,2.78,3.41,6.43,6.35,11,8.86,2.27,1.01,4.83,1.88,7.66,2.56,2.82.68,5.86,1.01,9.03,1.01,6.7,0,12.3-1.2,16.8-3.57,4.48-2.38,8.09-5.3,10.83-8.77,2.73-3.48,4.77-7.29,6.13-11.51.46-1.69.85-3.67,1.2-5.88.35-2.21.5-4.18.5-5.88v-75.35c0-2.62-1.01-5.12-3.08-7.5-2.04-2.06-4.48-3.08-7.33-3.08-2.62,0-5.12,1.01-7.5,3.08v.02ZM863.06,547.26v-75.61c-.04-2.56-1.05-5.03-3.08-7.37-2.04-2.06-4.49-3.08-7.33-3.08-2.62,0-5.1,1.01-7.5,3.08-2.04,2.04-3.06,4.55-3.06,7.5v75.34c0,1.6-.17,2.97-.52,4.11,0,1.49-.48,2.98-1.46,4.53-.96,1.53-2.58,3.04-4.84,4.51-1.93,1.03-4.49,1.53-7.66,1.53s-5.86-.5-7.68-1.46c-1.81-.96-3.35-2.36-4.59-4.18-.79-1.14-1.49-2.78-2.04-4.94,0-1.81-.11-3.19-.35-4.11l.35-4.09c.11-.92.31-1.73.59-2.47.28-.74.77-1.57,1.46-2.47.66-.92,1.27-1.62,1.81-2.12.5-.5,1.34-1.05,2.47-1.62,2.04-1.14,4.72-1.69,8.01-1.69,2.62,0,4.99-1.01,7.15-3.08,2.16-2.04,3.24-4.55,3.24-7.5,0-2.62-1.01-4.99-3.08-7.17-2.04-2.16-4.49-3.24-7.31-3.24-6.48,0-11.94,1.14-16.38,3.41-4.42,2.27-8.18,5.27-11.24,9.03-2.62,3.52-4.68,7.39-6.13,11.6-.46,1.93-.81,3.7-1.11,5.36-.28,1.66-.53,3.67-.77,6.04,0,2.84.11,4.92.35,6.23.22,1.31.74,3.15,1.53,5.54,1.25,4.2,3.26,8.01,6.04,11.42,2.8,3.41,6.45,6.35,11,8.86,2.27,1.01,4.84,1.88,7.68,2.56s5.86,1.01,9.03,1.01c6.7,0,12.3-1.2,16.8-3.57s8.09-5.3,10.83-8.77c2.73-3.48,4.77-7.29,6.13-11.51.46-1.69.85-3.67,1.2-5.88.33-2.14.5-4.05.5-5.71l-.04-.04ZM226.11,611.91h.26c2.56-.04,4.9-1.09,7.04-3.2,2.16-2.12,3.24-4.7,3.24-7.66v-52.55l.35-4.26c.11-.94.31-1.81.59-2.58.28-.77.77-1.64,1.46-2.58.66-.94,1.27-1.69,1.79-2.23.52-.52,1.34-1.09,2.47-1.69,2.04-1.2,4.72-1.79,8.01-1.79s5.77.55,7.75,1.69c1.97,1.12,3.46,2.49,4.42,4.11.96,1.6,1.57,3.3,1.79,5.08l.5,4.25c0,1.66-.17,3.09-.5,4.27,0,1.55-.5,3.11-1.44,4.72-.98,1.6-2.6,3.17-4.86,4.72-1.95,1.09-4.49,1.6-7.66,1.6-2.62,0-5.12,1.07-7.5,3.22-2.06,2.12-3.08,4.7-3.08,7.66,0,2.73,1.01,5.34,3.08,7.83,2.04,2.14,4.55,3.2,7.5,3.2,6.7,0,12.3-1.23,16.78-3.74,4.49-2.49,8.1-5.56,10.81-9.17,2.73-3.63,4.77-7.63,6.13-12.03.46-1.79.85-3.83,1.2-6.13s.5-4.37.5-6.13c0-3.92-.57-7.88-1.71-11.92-1.03-4.4-3.08-8.44-6.13-12.1-2.38-3.44-5.89-6.47-10.55-9.1-4.66-2.6-10.33-3.9-17.04-3.9s-11.92,1.2-16.37,3.55c-4.42,2.38-8.18,5.53-11.24,9.45-2.62,3.68-4.66,7.72-6.13,12.1-.46,2.03-.83,3.89-1.11,5.6-.28,1.71-.53,3.83-.77,6.32v52.55c0,2.73,1.01,5.23,3.06,7.48,2.01,2.23,4.48,3.35,7.37,3.39l.04-.04h-.02Z"/>
    </clipPath>
    <linearGradient id="Degradado_sin_nombre_16-2" data-name="Degradado sin nombre 16" x1="198.04" y1="536.57" x2="880.72" y2="536.57" gradientTransform="matrix(1,0,0,1,0,0)" xlink:href="#Degradado_sin_nombre_16"/>
  </defs>
  <g id="Capa_2-2" data-name="Capa 2">
    <g>
      <g>
        <path class="cls-4" d="M432.86,0c117.27,0,212.39,95.06,212.39,212.39s-95.06,212.39-212.39,212.39-212.39-95.06-212.39-212.39S315.53,0,432.86,0"/>
        <g class="cls-8">
          <rect class="cls-2" x="330.43" y="-227.83" width="338.15" height="1065.72" transform="translate(194.48 804.53) rotate(-90)"/>
        </g>
        <path class="cls-1" d="M241.05,224.69l119.23,61.41,142.7-126.09,121.19,68.38c9.8-110.96-79.65-206.73-184.19-208.2-106.17-1.52-204.82,81.67-198.94,204.49"/>
        <path class="cls-3" d="M328.16,242.88c-6.91-5.12-11.05-11.81-12.3-20.2-.65-9.15,1.25-16.77,5.77-22.92l43.34-58.85c4.9-6.7,11.54-10.62,19.87-11.92,9.15-.71,16.77,1.25,22.92,5.77,6.7,4.9,10.56,11.65,11.65,20.25s-.65,16.01-5.17,22.1l-43.34,58.85c-5.12,6.97-11.98,10.94-20.58,12.03-8.6,1.09-16.01-.65-22.16-5.17M581.27,140.3c15.24,11.22,26.13,23.63,32.5,37.08,6.42,13.5,9.58,25.97,9.47,37.51,1.09,13.18-.76,25.37-5.44,36.7-3.87,10.73-8.98,20.31-15.24,28.86-2.83,3.87-6.53,8.06-11,12.52-4.52,4.46-8.71,8.28-12.58,11.38-10.18,7.3-21.23,12.58-33.27,15.9-12.03,3.32-25.15,3.92-39.36,1.85s-28.96-8.77-44.21-19.98c-6.75-4.95-10.73-11.43-11.92-19.55-.65-8.87,1.2-16.28,5.55-22.21,4.74-6.48,11.22-10.34,19.27-11.54,8.87-.65,16.28,1.2,22.21,5.55,7.24,5.34,13.94,8.44,20.04,9.36,7.68.44,13.88-.27,18.62-2.12,4.74-1.85,8.38-4.52,10.83-7.84,2.67-2.01,5.34-4.85,8.06-8.44l5.72-10.18c2.34-4.25,3.7-8.93,4.08-14.05s-.82-10.56-3.54-16.33-5.99-9.85-13.28-15.19c-7.51-5.5-14.54-8.6-21.12-9.53-3.54-.54-6.32-.76-8.33-.44s-4.57.93-7.68,1.85c-3.1.93-5.55,2.01-7.46,3.21s-3.81,2.67-5.5,4.63l-7.62,8.71-52.81,71.49c-.76,1.03-1.58,2.01-2.45,2.94l-5.12,6.97c-2.94,4.03-6.75,8.33-11.38,12.9-4.63,4.63-8.93,8.55-12.96,11.76-10.51,7.51-21.94,13.01-34.3,16.44-12.36,3.43-25.92,4.08-40.62,1.91-14.65-2.18-29.89-9.04-45.62-20.63-7.46-5.5-13.94-11.49-19.44-18.02-5.5-6.53-10.02-12.96-13.61-19.27-6.37-13.72-9.85-27-10.51-39.8-1.25-24.72,7.02-48.51,21.51-68.16l43.34-58.85c4.9-6.7,11.54-10.62,19.87-11.92,9.15-.71,16.77,1.25,22.92,5.77,6.7,4.9,10.56,11.65,11.65,20.25,1.09,8.6-.65,16.01-5.17,22.1l-43.34,58.85c-1.03,2.5-3.1,5.93-6.26,10.18-2.4,6.04-3.65,11.11-3.76,15.14-.22,6.42.98,12.36,3.59,17.75,2.61,5.39,7.79,10.94,15.52,16.66,7.46,5.5,14.37,8.71,20.69,9.64,7.89.44,14.32-.27,19.22-2.23,7.46-2.94,14.75-10.4,19.49-16.82l43.34-58.85c.33-.49.71-.93,1.09-1.42l15.79-21.51c4.03-5.44,8.49-9.2,11.87-12.47,3.43-3.27,7.24-6.75,11.49-10.4,10.4-7.08,21.56-12.47,33.37-16.12,13.28-3.43,26.84-3.97,40.78-1.74,13.88,2.23,28.2,8.82,42.96,19.65h.11l-.05.11Z"/>
      </g>
      <g>
        <g>
          <path class="cls-3" d="M179.4,593.22c-4.86,0-9.22-1.79-12.61-5.17-3.5-4.05-5.17-8.16-5.17-12.61l-.5-29.42c-.12-.85-.44-1.7-.97-2.52-.44-.7-1.25-1.37-2.4-2-1.03-.56-3-.91-5.15-.91s-4.3.38-5.37.98c-1,.5-1.28.72-1.29.73-.32.32-.74.83-1.25,1.52-.56.75-.68,1.06-.69,1.1-.07.18-.19.54-.26,1.13l-.31,4v25.99c0,4.6-1.77,8.71-5.12,11.89-3.17,3.01-7.26,4.67-11.52,4.67s-8.55-1.74-11.59-4.78c-1.1-1.29-1.97-2.52-2.66-3.74-.62.87-1.34,1.7-2.15,2.47-3.19,3.02-7.28,4.67-11.53,4.67s-8.48-1.7-11.57-4.78c-3.28-3.83-4.84-7.67-4.84-11.8v-8.52c-1.6,4.18-3.71,7.91-6.43,11.38-3.3,4.17-7.65,7.71-12.92,10.53-5.43,2.88-12.13,4.34-19.9,4.34-3.71,0-7.26-.4-10.57-1.19-3.19-.75-6.18-1.75-8.89-2.97-5.69-3.12-10.04-6.61-13.35-10.71-3.33-4.08-5.76-8.69-7.24-13.7-.78-2.27-1.4-4.49-1.72-6.21-.29-1.76-.44-4.32-.44-7.44v-26.95c0-4.44,1.68-8.45,4.86-11.61,3.69-3.17,7.79-4.82,11.92-4.82s8.39,1.82,11.55,5.12c.47.5.87.97,1.23,1.42.26-.3.54-.6.85-.93,3.71-3.21,7.82-4.87,11.96-4.87s8.42,1.84,11.55,5.17c.22.22.42.45.62.68.48-.62,1-1.21,1.56-1.76,3.52-3.04,7.07-4.6,10.89-4.81.56-.08,1.12-.13,1.69-.13,3.75,0,7.7,1.89,10.83,5.19,1.6,1.69,2.8,3.53,3.59,5.49.8-1.6,1.86-3.07,3.19-4.39.7-.61,1.41-1.16,2.14-1.67-1.11-.73-2.14-1.6-3.09-2.59-3.18-3.33-4.86-7.36-4.86-11.65,0-4.69,1.73-8.88,4.99-12.13,3.8-3.28,8.04-4.99,12.33-4.99s8.48,1.77,11.71,4.99c3.38,3.91,4.99,7.86,4.99,12.13,0,4.62-1.82,8.78-5.27,12.05-.7.66-1.42,1.26-2.17,1.79.98.68,1.9,1.48,2.73,2.37,3.12,3.32,4.71,7.12,4.71,11.29v4.53c1.29-2.55,2.76-4.92,4.44-7.17,3.84-4.7,8.5-8.47,13.88-11.25,5.48-2.82,12.18-4.26,19.93-4.26h.41c7.88.06,14.73,1.62,20.36,4.63,5.66,3.03,10.07,6.7,13.12,10.91,3.54,4.02,6.12,8.98,7.42,14.25,1.28,4.33,1.96,8.98,1.96,13.41v25.77c0,4.94-1.9,9.34-5.49,12.74-3.42,3.23-7.33,4.93-11.62,5.06h0s-.55.08-.55.08ZM152.58,528.45c4.4,0,7.99.79,10.98,2.42,2.99,1.62,5.29,3.7,6.85,6.19,1.45,2.28,2.37,4.79,2.72,7.45l.54,4.34.04,26.57c0,1.43.64,2.87,1.95,4.4.84.81,2.16,1.27,3.74,1.27.91,0,2.16-.2,3.81-1.75,1.17-1.11,1.69-2.32,1.69-3.93v-25.77c0-3.33-.51-6.79-1.53-10.26-.92-3.74-2.57-6.87-5.19-9.88-2.23-3.06-5.28-5.57-9.37-7.75-4.38-2.34-10.26-2.94-15.44-3.22-5.59.04-10.32,1.02-13.98,2.91-3.87,1.99-7.19,4.65-9.89,7.92-2.19,2.96-4.06,6.52-5.39,10.26-.32,1.54-.66,3.16-.92,4.7-.3,1.73-.54,3.71-.73,5.89v25.83c.02,1.12.56,2.3,1.66,3.59.6.58,1.62.92,2.89.92.72,0,1.71-.16,2.99-1.4.95-.9,1.35-1.83,1.35-3.11l.35-31.18v-.05c.19-1.57.51-2.92,1-4.23.51-1.31,1.26-2.61,2.29-3.99,1.01-1.33,1.77-2.22,2.46-2.9.96-.98,2.27-1.88,4.11-2.81,2.46-1.37,5.69-2.19,9.41-2.37l-.02-.04,1.62-.04ZM17.22,518.9c-1.02.1-2.07.62-3.21,1.59-.61.63-.96,1.57-.96,2.72v26.95c0,2.55.08,4.29.25,5.31.2,1.05.66,2.68,1.34,4.68,1.1,3.68,2.76,6.85,5.1,9.73,2.28,2.82,5.44,5.35,9.4,7.53,1.51.68,3.82,1.42,6.27,2,2.4.57,5.01.86,7.76.86,5.8,0,10.58-.98,14.21-2.92,3.77-2.02,6.82-4.48,9.08-7.33,2.3-2.95,4.06-6.26,5.21-9.82.32-1.28.69-3.13.98-5.02.3-2,.45-3.65.45-5.04v-26.95c0-.71-.16-1.69-1.42-3.01-.82-.85-1.55-1.24-2.49-1.33-1.2.13-2.51.42-3.91,1.6-.66.71-1,1.64-1,2.77v26.47c0,1.95-.19,3.65-.58,5.19-.17,2.37-.98,4.72-2.39,6.98-1.52,2.4-3.77,4.54-6.88,6.55-3.35,1.79-6.81,2.57-11.28,2.57s-8.03-.75-10.82-2.21c-2.76-1.47-5.08-3.57-6.92-6.25-1.21-1.7-2.22-4.07-3-7.04-.13-.5-.2-1.02-.2-1.52,0-1.95-.16-2.69-.19-2.82-.12-.5-.18-.98-.18-1.44v-26.47c0-.7-.16-1.68-1.4-3-.9-.94-1.78-1.34-2.94-1.34h-.29ZM99.05,520.22c-1.12,0-2.29.53-3.57,1.62-.6.62-.94,1.55-.94,2.72v50.08c0,1.12.53,2.29,1.63,3.59.59.57,1.61.92,2.88.92.71,0,1.69-.16,2.99-1.4.94-.9,1.35-1.83,1.35-3.11v-50.08c0-.7-.16-1.68-1.4-3-.9-.94-1.77-1.34-2.92-1.34h-.02ZM40.23,552.56c.63.58,1.68.91,3.2,1,.88-.05,1.76-.51,2.7-1.4.96-.91,1.36-1.84,1.36-3.11v-25.05c0-.7-.16-1.68-1.4-3-.9-.94-1.77-1.34-2.92-1.34s-2.27.51-3.53,1.57c-.67.72-1,1.62-1,2.75v25.05c0,1.11.52,2.26,1.59,3.53ZM98.16,492.08c-1.13.11-2.27.67-3.48,1.73-.71.71-1.09,1.82-1.09,3.26,0,.79.17,1.88,1.53,3.31,1.01,1.06,2.01,1.49,3.45,1.49.79,0,1.88-.17,3.33-1.53,1.04-.98,1.49-1.96,1.49-3.27,0-.8-.18-2.07-1.76-3.89-.71-.71-1.76-1.09-3.08-1.09h-.39Z"/>
          <path class="cls-3" d="M98.84,480.91c4.1,0,7.97,1.67,11.01,4.7,3.2,3.72,4.7,7.46,4.7,11.42,0,4.33-1.71,8.25-4.95,11.33-1.07,1.01-2.19,1.86-3.35,2.52,1.4.77,2.71,1.79,3.87,3.04,2.93,3.11,4.44,6.69,4.44,10.61v9.15c1.69-4.2,3.76-7.87,6.24-11.2,3.78-4.62,8.29-8.25,13.54-10.96,5.32-2.74,11.88-4.14,19.47-4.14h.41c7.7.06,14.39,1.57,19.89,4.51,5.54,2.97,9.84,6.54,12.78,10.61,3.44,3.92,5.99,8.73,7.26,13.91,1.25,4.24,1.93,8.75,1.93,13.17v25.77c0,4.64-1.79,8.8-5.18,12.01-3.35,3.17-7.2,4.79-11.44,4.79l-.06.07c-4.59,0-8.71-1.69-11.9-4.88-3.33-3.87-4.88-7.77-4.88-11.9l-.5-29.49c-.13-1.01-.5-2.01-1.12-2.98-.53-.85-1.46-1.62-2.76-2.34-1.26-.69-3.44-1.03-5.63-1.03-2.27,0-4.55.37-5.86,1.11-1.14.57-1.44.83-1.46.85-.41.41-.87.96-1.4,1.68-.59.79-.77,1.2-.83,1.34-.11.28-.24.72-.31,1.36l-.31,4.03v26.06c0,4.31-1.66,8.18-4.81,11.16-3.14,2.99-7.02,4.4-10.83,4.4-4.01,0-7.95-1.56-10.88-4.49-1.44-1.69-2.52-3.37-3.26-5.07-.76,1.36-1.75,2.63-2.95,3.78-3.16,2.99-7.03,4.4-10.84,4.4-4,0-7.93-1.56-10.86-4.49-3.11-3.65-4.55-7.26-4.55-11.09v-16.36c-.33,1.88-.68,3.57-1.09,5.08-1.64,5.08-4.02,9.54-7.13,13.52-3.22,4.07-7.46,7.52-12.6,10.26-5.29,2.8-11.83,4.22-19.43,4.22-3.63,0-7.09-.39-10.33-1.16-3.2-.76-6.13-1.75-8.71-2.91-5.54-3.04-9.8-6.48-12.99-10.43-3.24-3.98-5.62-8.47-7.05-13.35-.87-2.52-1.42-4.64-1.69-6.12-.26-1.57-.42-3.96-.42-7.26v-26.95c0-4.18,1.58-7.94,4.57-10.9,3.59-3.09,7.5-4.53,11.22-4.53,4.03,0,7.84,1.69,10.83,4.81.72.77,1.36,1.55,1.92,2.38.48-.66,1.01-1.27,1.6-1.88,3.61-3.12,7.52-4.56,11.25-4.56,4.05,0,7.87,1.71,10.82,4.86.52.53.98,1.09,1.4,1.68.61-.96,1.34-1.88,2.21-2.73,3.37-2.91,6.74-4.35,10.3-4.53.53-.08,1.06-.12,1.59-.12,3.7,0,7.33,1.96,10.11,4.88,2.23,2.36,3.65,5.05,4.2,7.9.7-2.52,2.04-4.83,4.02-6.78,1.11-.96,2.23-1.75,3.35-2.41-1.57-.81-3-1.9-4.27-3.24-3-3.15-4.59-6.94-4.59-10.96,0-4.42,1.62-8.36,4.7-11.42,3.73-3.22,7.78-4.7,11.63-4.7M98.56,491.06c-1.49,0-2.98.64-4.53,1.99-.92.92-1.44,2.25-1.44,4.02,0,.9.18,2.28,1.81,4,1.2,1.25,2.47,1.81,4.18,1.81.9,0,2.28-.18,4.02-1.81,1.25-1.18,1.81-2.41,1.81-4,0-.96-.2-2.47-2.01-4.55-.92-.92-2.19-1.44-3.83-1.44v-.02M127.01,581.56c.83,0,2.12-.17,3.68-1.68,1.14-1.09,1.66-2.27,1.66-3.83l.35-31.11c.18-1.55.5-2.82.94-4,.46-1.18,1.16-2.41,2.16-3.74.92-1.22,1.68-2.12,2.36-2.78.88-.9,2.12-1.75,3.87-2.63,2.67-1.49,6.3-2.3,10.57-2.3l-.02-.04c4.24,0,7.66.76,10.5,2.3,2.86,1.55,5.03,3.52,6.48,5.84,1.38,2.17,2.25,4.57,2.58,7.05l.53,4.27.04,26.51c0,1.68.72,3.33,2.19,5.05,1.05,1.01,2.56,1.62,4.49,1.62,1.01,0,2.56-.2,4.49-2.03,1.36-1.29,2.01-2.78,2.01-4.66v-25.77c0-3.46-.53-7-1.57-10.54-.96-3.89-2.71-7.17-5.4-10.26-2.32-3.19-5.47-5.75-9.65-7.98-4.2-2.25-9.63-3-15.86-3.33-5.8.04-10.68,1.05-14.5,3.02-4.02,2.06-7.44,4.83-10.2,8.18-2.27,3.06-4.2,6.7-5.58,10.63-.29,1.4-.66,3.17-.94,4.81-.28,1.62-.53,3.61-.74,5.97v25.92c.02,1.36.63,2.74,1.9,4.24.81.79,2.03,1.27,3.65,1.27M43.15,569.99c-4.25,0-7.7-.7-10.35-2.1-2.6-1.38-4.81-3.37-6.56-5.93-1.14-1.6-2.1-3.83-2.86-6.72-.11-.42-.17-.85-.17-1.27,0-2.01-.17-2.84-.22-3.06-.09-.39-.15-.79-.15-1.2v-26.47c0-.81-.17-2.08-1.68-3.68-1.09-1.14-2.23-1.66-3.67-1.66l.07-.02c-1.38,0-2.76.61-4.22,1.84-.81.83-1.31,1.97-1.31,3.48v26.95c0,2.51.07,4.33.26,5.47.2,1.09.66,2.73,1.38,4.84,1.12,3.78,2.87,7.09,5.27,10.04,2.38,2.93,5.62,5.53,9.69,7.77,1.62.74,3.94,1.49,6.52,2.1,2.49.59,5.16.88,7.99.88,5.95,0,10.89-1.01,14.68-3.04,3.89-2.08,7.05-4.64,9.39-7.59,2.36-3.02,4.18-6.43,5.38-10.13.33-1.31.7-3.15,1.01-5.18.29-1.95.46-3.68.46-5.19v-26.95c0-.81-.17-2.1-1.69-3.7-.99-1.03-1.97-1.55-3.22-1.64-1.47.15-2.98.52-4.59,1.88-.81.85-1.31,2.01-1.31,3.5v26.47c0,1.88-.18,3.54-.57,5.03-.15,2.23-.9,4.46-2.25,6.61-1.44,2.27-3.59,4.31-6.58,6.24-3.21,1.71-6.48,2.41-10.74,2.41M43.43,554.55c.81-.04,1.97-.33,3.39-1.68,1.16-1.11,1.68-2.28,1.68-3.83v-25.05c0-.81-.17-2.08-1.68-3.68-1.09-1.14-2.21-1.66-3.65-1.66s-2.76.61-4.22,1.84c-.81.85-1.31,1.99-1.31,3.48v25.05c0,1.36.61,2.74,1.86,4.22.88.85,2.25,1.22,3.92,1.31M99.05,580.16c.83,0,2.1-.17,3.68-1.68,1.14-1.09,1.66-2.27,1.66-3.83v-50.08c0-.81-.17-2.08-1.68-3.68-1.09-1.14-2.21-1.66-3.65-1.66h-.02c-1.36,0-2.74.61-4.22,1.86-.81.83-1.29,1.97-1.29,3.48v50.08c0,1.36.61,2.74,1.86,4.24.81.79,2.03,1.27,3.65,1.27M98.84,478.91c-4.53,0-9.01,1.79-12.94,5.19l-.05.05-.05.05c-3.46,3.44-5.29,7.88-5.29,12.84,0,4.55,1.78,8.81,5.14,12.34.66.7,1.36,1.33,2.1,1.91-.36.28-.7.56-1.04.85l-.05.04-.05.05c-.92.91-1.72,1.9-2.41,2.94-.77-1.41-1.76-2.76-2.95-4.02-3.32-3.5-7.54-5.5-11.56-5.5-.6,0-1.21.04-1.8.13-4.04.23-7.76,1.87-11.4,5.01l-.05.04-.04.04c-.31.31-.61.62-.9.95-3.29-3.43-7.6-5.33-12.13-5.33s-8.72,1.75-12.55,5.05l-.07.06-.06.06s-.07.07-.1.1c-.16-.19-.34-.38-.52-.57-3.37-3.52-7.73-5.45-12.29-5.45s-8.71,1.73-12.52,5.01l-.05.05-.05.05c-3.37,3.35-5.16,7.61-5.16,12.32v26.95c0,3.22.15,5.77.45,7.58.34,1.8.96,4.05,1.76,6.4,1.51,5.12,4.01,9.83,7.41,14.01,3.39,4.2,7.83,7.77,13.57,10.92l.07.04.07.03c2.77,1.25,5.82,2.27,9.07,3.03,3.37.8,7.01,1.21,10.79,1.21,7.94,0,14.79-1.5,20.37-4.45,5.39-2.88,9.84-6.51,13.23-10.79,1.8-2.3,3.34-4.71,4.65-7.28v3.79c0,4.37,1.64,8.42,5.03,12.39l.05.06.06.06c3.27,3.27,7.63,5.08,12.27,5.08s8.84-1.76,12.21-4.95c.49-.46.94-.95,1.37-1.45.56.85,1.21,1.71,1.94,2.58l.05.06.06.06c3.23,3.23,7.71,5.08,12.3,5.08s8.86-1.76,12.21-4.95c3.55-3.36,5.43-7.73,5.43-12.61v-25.99l.3-3.92c.06-.47.14-.73.18-.81,0-.02.13-.29.58-.89.43-.58.81-1.04,1.12-1.36.11-.07.41-.26,1.03-.57l.04-.02.04-.02c.91-.52,2.83-.85,4.88-.85,1.96,0,3.8.31,4.67.79.99.54,1.69,1.11,2.03,1.65.45.7.71,1.37.82,2.07l.5,29.37c0,4.66,1.76,8.98,5.37,13.17l.05.06.05.05c3.58,3.58,8.18,5.47,13.31,5.47h1l.08-.1c4.35-.24,8.31-2.02,11.79-5.31,3.8-3.59,5.8-8.25,5.8-13.46v-25.77c0-4.51-.69-9.24-2-13.69-1.33-5.39-3.97-10.44-7.62-14.63-3.13-4.3-7.64-8.04-13.4-11.12-5.78-3.09-12.79-4.69-20.82-4.75h-.42c-7.91,0-14.77,1.47-20.39,4.37-5.5,2.84-10.27,6.7-14.17,11.47l-.03.03-.03.04c-.94,1.27-1.82,2.57-2.64,3.91v-.67c0-4.44-1.68-8.47-4.98-11.98-.56-.61-1.16-1.17-1.79-1.69.41-.33.81-.68,1.2-1.06,3.65-3.46,5.58-7.88,5.58-12.78,0-4.52-1.69-8.68-5.18-12.73l-.05-.06-.05-.05c-3.42-3.41-7.83-5.29-12.42-5.29h0ZM95.4,494.51c1.02-.87,1.95-1.34,2.85-1.43h.31c1.03,0,1.8.27,2.37.81,1.47,1.72,1.47,2.74,1.47,3.18,0,1.03-.33,1.74-1.18,2.54-1.35,1.26-2.22,1.26-2.64,1.26-1.17,0-1.91-.32-2.74-1.19-1.25-1.32-1.25-2.2-1.25-2.62,0-1.13.27-1.99.81-2.56h0ZM130.3,529.96c2.6-3.15,5.81-5.72,9.54-7.63,3.52-1.82,8.07-2.76,13.54-2.8,5.05.27,10.77.85,14.96,3.1,4.01,2.14,6.86,4.49,8.98,7.39l.05.07.06.06c2.52,2.89,4.09,5.89,4.96,9.43v.04s.02.04.02.04c.99,3.38,1.49,6.74,1.49,9.98v25.77c0,1.33-.41,2.29-1.38,3.21-1.57,1.48-2.62,1.48-3.12,1.48-1.29,0-2.32-.34-3.04-1-1.11-1.31-1.64-2.51-1.64-3.67l-.04-26.51v-.12s-.02-.12-.02-.12l-.53-4.27c-.38-2.82-1.34-5.47-2.88-7.88-1.64-2.62-4.08-4.82-7.22-6.52-3.14-1.71-6.88-2.54-11.45-2.54h-3.24l.09.19c-3.23.32-6.08,1.12-8.35,2.39-1.92.97-3.31,1.93-4.36,3-.7.68-1.49,1.61-2.52,2.97-1.09,1.45-1.88,2.83-2.42,4.22-.53,1.41-.87,2.83-1.06,4.49v.11s-.01.11-.01.11l-.35,31.11c0,1.03-.29,1.7-1.04,2.4-1.17,1.12-1.94,1.12-2.31,1.12-.68,0-1.6-.11-2.19-.65-.9-1.07-1.34-2.02-1.35-2.89v-25.8c.18-2.11.42-4.04.71-5.72.26-1.52.6-3.16.9-4.6,1.28-3.61,3.09-7.04,5.23-9.94h0ZM65.97,521.17c1.08-.89,2.08-1.19,3.22-1.32.56.07,1.07.29,1.77,1.02,1.13,1.19,1.13,1.98,1.13,2.31v26.95c0,1.34-.14,2.94-.44,4.9-.28,1.82-.63,3.62-.96,4.92-1.11,3.42-2.81,6.6-5.03,9.45-2.16,2.72-5.11,5.1-8.76,7.06-3.48,1.86-8.1,2.8-13.74,2.8-2.67,0-5.21-.28-7.53-.83-2.35-.55-4.57-1.26-6.08-1.94-3.81-2.11-6.84-4.55-9.03-7.24-2.25-2.77-3.86-5.83-4.9-9.35v-.04s-.02-.04-.02-.04c-.84-2.48-1.18-3.85-1.31-4.57-.15-.92-.22-2.61-.22-5.1v-26.95c0-.86.22-1.52.68-2.02.93-.77,1.76-1.19,2.53-1.28h.24c.74,0,1.4.18,2.22,1.04,1.12,1.19,1.12,1.97,1.12,2.31v26.47c0,.54.07,1.1.2,1.66,0,.03.17.69.17,2.59,0,.59.08,1.19.23,1.78.8,3.08,1.87,5.56,3.16,7.38,1.9,2.78,4.35,4.99,7.25,6.54,2.94,1.55,6.73,2.33,11.29,2.33s8.25-.82,11.68-2.65l.07-.04.07-.05c3.24-2.1,5.58-4.34,7.18-6.85,1.49-2.39,2.34-4.86,2.54-7.36.4-1.6.59-3.35.59-5.35v-26.47c0-.86.23-1.53.69-2.05h0ZM40.33,521.95c1.05-.87,1.98-1.29,2.84-1.29.73,0,1.38.18,2.2,1.04,1.13,1.19,1.13,1.97,1.13,2.31v25.05c0,1-.29,1.65-1.06,2.38-1.02.97-1.7,1.1-2.01,1.12-1.18-.08-2.03-.31-2.48-.69-.88-1.06-1.31-1.98-1.31-2.83v-25.05c0-.84.23-1.51.69-2.03h0ZM96.21,522.54c1.06-.89,1.99-1.32,2.84-1.32h0c.75,0,1.4.18,2.22,1.04,1.13,1.19,1.13,1.97,1.13,2.31v50.08c0,1-.29,1.67-1.04,2.38-1.18,1.12-1.94,1.12-2.31,1.12-.67,0-1.59-.11-2.19-.64-.89-1.08-1.32-2.02-1.32-2.86v-50.08c0-.87.22-1.53.66-2.02h0Z"/>
        </g>
        <path class="cls-1" d="M152.73,512.58c7,0,12.95,1.31,17.83,3.92,4.86,2.62,8.57,5.64,11.05,9.08,3.21,3.68,5.34,7.72,6.43,12.1,1.18,4.03,1.79,8.01,1.79,11.94v26.43c0,2.95-1.09,5.45-3.24,7.5s-4.55,3.06-7.15,3.06c-2.97,0-5.45-1.01-7.5-3.06-2.04-2.39-3.08-4.88-3.08-7.5v-26.47l-.53-4.25c-.22-1.77-.85-3.44-1.86-5.05-.99-1.6-2.52-2.97-4.6-4.07-2.06-1.12-4.75-1.68-8.05-1.68s-6.19.59-8.31,1.79c-1.18.59-2.04,1.14-2.56,1.68-.53.53-1.14,1.27-1.86,2.23-.7.94-1.22,1.81-1.51,2.56s-.5,1.64-.63,2.56l-.35,4.25v26.47c0,2.95-1.09,5.45-3.24,7.5s-4.55,3.06-7.17,3.06c-2.95,0-5.45-1.01-7.5-3.06-2.04-2.39-3.08-4.88-3.08-7.5v-26.43c.22-2.51.5-4.6.79-6.32.29-1.71.68-3.59,1.16-5.6,1.55-4.4,3.68-8.44,6.41-12.1,3.21-3.92,7.13-7.07,11.77-9.45,4.62-2.38,10.33-3.55,17.09-3.55M98.56,486.01c2.97,0,5.53,1.07,7.66,3.21,2.14,2.51,3.22,5.12,3.22,7.85,0,2.97-1.12,5.53-3.39,7.66-2.25,2.14-4.75,3.21-7.48,3.21-3.09,0-5.71-1.12-7.85-3.39-2.14-2.25-3.21-4.75-3.21-7.48,0-3.09,1.07-5.71,3.21-7.85,2.51-2.14,5.12-3.21,7.85-3.21h-.02ZM97.89,514.18c2.84,0,5.29,1.09,7.33,3.24s3.08,4.55,3.08,7.15v50.08c0,2.95-1.09,5.45-3.24,7.5s-4.55,3.06-7.15,3.06c-2.95,0-5.45-1.01-7.5-3.06-2.04-2.39-3.08-4.88-3.08-7.5v-50.08c0-2.84,1.01-5.27,3.08-7.33,2.38-2.04,4.88-3.08,7.5-3.08h0l-.02.02ZM44.33,559.6c-2.97,0-5.43-1.03-7.5-3.08-2.04-2.38-3.08-4.88-3.08-7.5v-25.05c0-2.84,1.03-5.27,3.08-7.31,2.38-2.04,4.88-3.06,7.5-3.06,2.84,0,5.29,1.09,7.31,3.24,2.04,2.16,3.08,4.55,3.08,7.15v25.05c0,2.95-1.09,5.43-3.24,7.5-2.16,2.04-4.55,3.08-7.15,3.08h0v-.02ZM69.95,512.8c2.84,0,5.27,1.09,7.33,3.24,2.04,2.16,3.08,4.55,3.08,7.17v26.36c0,1.79-.18,3.83-.53,6.15-.37,2.32-.77,4.38-1.25,6.17-1.44,4.4-3.57,8.44-6.43,12.06-2.86,3.63-6.63,6.7-11.35,9.19-4.7,2.51-10.57,3.74-17.61,3.74-3.33,0-6.5-.37-9.47-1.07-2.97-.72-5.67-1.62-8.03-2.67-4.77-2.63-8.6-5.71-11.53-9.3-2.91-3.57-5.03-7.57-6.34-11.97-.83-2.51-1.36-4.44-1.62-5.82-.24-1.36-.37-3.54-.37-6.52v-26.36c0-2.84,1.01-5.27,3.08-7.31,2.38-2.04,4.88-3.06,7.5-3.06,2.84,0,5.27,1.09,7.33,3.24,2.04,2.16,3.08,4.55,3.08,7.15v25.88c.24,1.01.37,2.54.37,4.57.64,2.41,1.38,4.25,2.28,5.53,1.4,2.04,3.11,3.59,5.14,4.68s4.88,1.62,8.58,1.62,6.43-.57,8.58-1.71c2.54-1.66,4.35-3.33,5.43-5.07,1.09-1.71,1.62-3.39,1.62-5.05.37-1.27.57-2.8.57-4.57v-25.88c0-2.84,1.01-5.27,3.06-7.33,2.38-2.04,4.88-3.08,7.5-3.08h0v.02Z"/>
        <g>
          <g class="cls-6">
            <rect class="cls-7" x="198.04" y="444.86" width="682.68" height="183.41"/>
          </g>
          <path class="cls-3" d="M691.98,461.18c2.86,0,5.29,1.01,7.33,3.08,2.06,2.38,3.08,4.88,3.08,7.5v75.35c0,1.69-.15,3.67-.5,5.88-.35,2.21-.74,4.18-1.2,5.88-1.36,4.22-3.41,8.03-6.13,11.51-2.74,3.46-6.35,6.39-10.83,8.77-4.49,2.38-10.09,3.57-16.8,3.57-3.17,0-6.21-.33-9.03-1.01-2.84-.68-5.4-1.55-7.66-2.56-4.57-2.51-8.22-5.45-11-8.86-2.8-3.41-4.83-7.22-6.06-11.42-.79-2.39-1.31-4.24-1.53-5.54-.24-1.31-.35-3.39-.35-6.23.24-2.38.5-4.38.77-6.04.28-1.66.64-3.43,1.11-5.36,1.47-4.2,3.52-8.07,6.13-11.59,3.08-3.76,6.82-6.76,11.25-9.03,4.42-2.27,9.87-3.41,16.36-3.41,2.84,0,5.29,1.09,7.33,3.24,2.04,2.17,3.08,4.55,3.08,7.17,0,2.95-1.09,5.45-3.24,7.5-2.16,2.06-4.53,3.08-7.15,3.08-3.32,0-5.97.55-8.01,1.69-1.12.57-1.97,1.12-2.47,1.62-.53.5-1.12,1.2-1.81,2.12-.66.9-1.16,1.73-1.44,2.47-.29.74-.5,1.55-.61,2.47l-.35,4.09c.24.92.35,2.3.35,4.11.57,2.16,1.25,3.79,2.04,4.94,1.25,1.82,2.8,3.22,4.6,4.18,1.81.96,4.48,1.46,7.66,1.46s5.75-.5,7.68-1.53c2.27-1.47,3.89-2.98,4.84-4.51.96-1.55,1.46-3.04,1.46-4.53.33-1.14.5-2.5.5-4.11v-75.34c0-2.95,1.03-5.45,3.08-7.5v-.02c2.38-2.06,4.88-3.08,7.5-3.08M852.65,461.2c2.84,0,5.29,1.01,7.33,3.08,2.03,2.34,3.04,4.81,3.08,7.37v75.61l.04.04c0,1.66-.17,3.57-.5,5.71-.35,2.21-.74,4.18-1.2,5.88-1.36,4.22-3.41,8.03-6.13,11.51-2.74,3.46-6.34,6.39-10.83,8.77-4.49,2.38-10.09,3.57-16.8,3.57-3.17,0-6.19-.33-9.03-1.01-2.84-.68-5.42-1.55-7.68-2.56-4.55-2.51-8.2-5.45-11-8.86-2.78-3.41-4.79-7.22-6.04-11.42-.79-2.39-1.31-4.24-1.53-5.54-.24-1.31-.35-3.39-.35-6.23.24-2.38.5-4.38.77-6.04.29-1.66.64-3.43,1.11-5.36,1.46-4.22,3.52-8.09,6.13-11.6,3.06-3.76,6.82-6.76,11.24-9.03,4.44-2.27,9.89-3.41,16.38-3.41,2.82,0,5.27,1.09,7.31,3.24,2.06,2.17,3.08,4.55,3.08,7.17,0,2.95-1.09,5.45-3.24,7.5-2.16,2.06-4.53,3.08-7.15,3.08-3.3,0-5.97.55-8.01,1.69-1.12.57-1.97,1.12-2.47,1.62-.53.5-1.14,1.2-1.81,2.12-.68.9-1.18,1.73-1.46,2.47-.28.74-.48,1.55-.59,2.47l-.35,4.09c.24.92.35,2.3.35,4.11.55,2.16,1.25,3.79,2.04,4.94,1.23,1.82,2.78,3.22,4.59,4.18,1.82.96,4.51,1.46,7.68,1.46s5.73-.5,7.66-1.53c2.27-1.47,3.89-2.98,4.84-4.51.98-1.55,1.46-3.04,1.46-4.53.35-1.14.52-2.5.52-4.11v-75.34c0-2.95,1.01-5.45,3.06-7.5,2.39-2.06,4.88-3.08,7.5-3.08M389.25,461.22c2.84,0,5.27,1.01,7.31,3.08,2.04,2.38,3.08,4.88,3.08,7.5v75.35c.24.9.35,2.28.35,4.09.59,2.16,1.27,3.79,2.06,4.94,1.25,1.82,2.8,3.22,4.6,4.18,1.82.96,4.51,1.46,7.68,1.46s5.73-.5,7.66-1.53c2.27-1.47,3.89-2.98,4.84-4.51.96-1.55,1.46-3.04,1.46-4.53.33-1.12.5-2.49.5-4.09l-.5-4.09c-.24-1.69-.85-3.32-1.81-4.84-.96-1.55-2.43-2.84-4.42-3.92-1.99-1.09-4.59-1.62-7.75-1.62-2.95,0-5.45-1.03-7.5-3.08-2.04-2.38-3.08-4.88-3.08-7.5,0-2.84,1.03-5.29,3.08-7.33,2.38-2.06,4.88-3.08,7.5-3.08,6.7,0,12.38,1.25,17.04,3.74,4.66,2.52,8.2,5.42,10.57,8.71,3.06,3.52,5.1,7.39,6.13,11.59,1.12,3.85,1.69,7.66,1.69,11.4,0,1.69-.15,3.67-.5,5.88-.35,2.21-.74,4.18-1.2,5.88-1.36,4.2-3.41,8.01-6.13,11.49-2.73,3.46-6.32,6.39-10.81,8.77-4.49,2.38-10.09,3.57-16.8,3.57-3.17,0-6.19-.33-9.03-1.01-2.84-.68-5.4-1.55-7.66-2.56-4.57-2.51-8.22-5.45-11-8.86-2.8-3.41-4.81-7.22-6.06-11.42-.79-2.39-1.31-4.24-1.53-5.54-.24-1.31-.35-3.39-.35-6.23v-75.32c0-2.94,1.03-5.44,3.06-7.48,2.38-2.06,4.88-3.07,7.49-3.07M470.76,461.24c2.84,0,5.29,1.01,7.31,3.08,2.04,2.36,3.08,4.86,3.08,7.48v99.89c0,2.87-.99,5.73-3.04,7.74-2.21,2.16-4.66,3.24-7.35,3.24-2.95,0-5.45-1.01-7.5-3.06-2.06-2.38-3.08-4.88-3.08-7.5v-100.33c0-2.93,1.03-5.43,3.08-7.48v.02c2.38-2.06,4.88-3.08,7.5-3.08M381.77,464.28s-.01.01-.02.02c0,0,0,0,0,0l.02-.02M609.46,484.63c2.97,0,5.53,1.09,7.66,3.21,2.14,2.51,3.21,5.12,3.21,7.85,0,2.97-1.14,5.53-3.39,7.66-2.25,2.12-4.73,3.21-7.48,3.21-3.09,0-5.73-1.14-7.85-3.39-2.14-2.25-3.21-4.75-3.21-7.48,0-3.09,1.07-5.71,3.21-7.85,2.51-2.12,5.12-3.21,7.85-3.21M499,484.63c2.97,0,5.54,1.09,7.66,3.21,2.16,2.51,3.22,5.12,3.22,7.85,0,2.97-1.14,5.53-3.39,7.66-2.25,2.12-4.73,3.21-7.48,3.21-3.08,0-5.69-1.14-7.83-3.39-2.14-2.25-3.2-4.75-3.2-7.48,0-3.09,1.07-5.71,3.2-7.85h-.02c2.49-2.12,5.1-3.21,7.83-3.21M360.78,511.17c2.97,0,5.53,1.14,7.66,3.39,2.12,2.25,3.21,4.75,3.21,7.48v26.12c0,1.77-.17,3.83-.53,6.15-.37,2.32-.77,4.37-1.25,6.15-1.42,4.4-3.57,8.42-6.43,12.06-2.86,3.63-6.63,6.69-11.35,9.19-4.68,2.52-10.57,3.76-17.59,3.76-3.33,0-6.5-.35-9.47-1.07-2.97-.72-5.65-1.6-8.03-2.67-4.77-2.62-8.6-5.71-11.53-9.28-2.93-3.57-5.03-7.57-6.34-11.97-.85-2.49-1.4-4.42-1.62-5.8-.26-1.36-.37-3.54-.37-6.52v-26.36c0-2.84,1.03-5.29,3.08-7.33,2.38-2.06,4.88-3.08,7.5-3.08,2.86,0,5.29,1.09,7.33,3.24,2.06,2.17,3.08,4.55,3.08,7.17v26.47c.26.96.37,2.38.37,4.25.59,2.23,1.29,3.94,2.12,5.12,1.29,1.9,2.87,3.35,4.77,4.35,1.9,1.01,4.66,1.51,7.98,1.51s5.97-.52,7.98-1.58c2.36-1.55,4.03-3.11,5.05-4.7,1.01-1.58,1.51-3.17,1.51-4.7.35-1.18.53-2.6.53-4.25v-26.21c0-2.97,1.09-5.54,3.2-7.66l.24-.2c2.51-2.14,6.19-3.03,8.91-3.03M251.29,511.51c6.7,0,12.38,1.31,17.04,3.91,4.66,2.63,8.18,5.65,10.55,9.1,3.06,3.67,5.1,7.7,6.13,12.1,1.14,4.03,1.71,7.99,1.71,11.92,0,1.77-.15,3.83-.5,6.13-.35,2.3-.74,4.35-1.2,6.13-1.36,4.4-3.41,8.4-6.13,12.03-2.71,3.61-6.32,6.69-10.81,9.17-4.48,2.51-10.08,3.74-16.78,3.74-2.95,0-5.45-1.07-7.5-3.2-2.06-2.49-3.08-5.1-3.08-7.83,0-2.97,1.01-5.54,3.08-7.66,2.38-2.16,4.88-3.22,7.5-3.22,3.17,0,5.71-.52,7.66-1.6,2.27-1.55,3.89-3.11,4.86-4.72.94-1.6,1.44-3.17,1.44-4.72.33-1.18.5-2.62.5-4.27l-.5-4.26c-.22-1.79-.83-3.48-1.79-5.08-.96-1.62-2.45-2.98-4.42-4.11-1.99-1.14-4.46-1.69-7.75-1.69s-5.97.59-8.01,1.79c-1.12.61-1.95,1.18-2.47,1.69-.52.53-1.12,1.29-1.79,2.23-.68.94-1.18,1.81-1.46,2.58-.28.77-.48,1.64-.59,2.58l-.35,4.26v52.55c0,2.97-1.09,5.54-3.24,7.66-2.14,2.12-4.48,3.17-7.04,3.21h-.26.02s-.04.04-.04.04c-2.89-.04-5.36-1.16-7.37-3.39-2.04-2.25-3.06-4.75-3.06-7.48v-52.55c.24-2.49.5-4.6.77-6.32.28-1.71.64-3.57,1.11-5.6,1.47-4.38,3.52-8.42,6.13-12.1,3.06-3.92,6.82-7.07,11.24-9.45,4.46-2.36,9.67-3.55,16.38-3.55M580.71,511.78c2.82,0,5.27,1.09,7.31,3.24,2.06,2.17,3.08,4.55,3.08,7.17,0,2.95-1.09,5.45-3.24,7.5-2.16,2.06-4.55,3.08-7.15,3.08h-26.47l-4.25.52c-1.88.13-3.65.72-5.3,1.79-1.66,1.05-3,2.65-4.07,4.77-1.07,2.14-1.6,4.79-1.6,7.98,0,3.54.53,6.32,1.6,8.33,1.29,1.88,2.73,3.33,4.25,4.4.94.72,1.84,1.22,2.65,1.51.83.29,1.68.52,2.49.63l4.25.35h26.47c2.82,0,5.27,1.07,7.31,3.24,2.06,2.16,3.08,4.53,3.08,7.15,0,2.95-1.09,5.45-3.24,7.5-2.16,2.06-4.55,3.08-7.15,3.08h-26.93c-2.32-.24-4.4-.5-6.24-.79-1.86-.28-3.7-.64-5.54-1.11-4.03-1.51-7.92-3.57-11.6-6.24-1.86-1.51-3.57-3.24-5.12-5.19-1.57-1.97-2.91-3.94-4.07-5.89-2.41-4.73-3.65-10.39-3.65-16.96,0-3.35.29-6.45.94-9.34.63-2.89,1.51-5.36,2.67-7.44,2.54-4.97,5.6-8.73,9.17-11.25,3.7-3.11,7.53-5.23,11.51-6.32,4-1.11,7.94-1.64,11.86-1.64l.06-.02h26.93M746.17,512.76c6.7,0,12.38,1.25,17.04,3.74,4.66,2.52,8.2,5.42,10.57,8.71,3.06,3.54,5.12,7.4,6.13,11.6,1.14,3.87,1.69,7.68,1.69,11.42v24.65c0,2.86-.99,5.71-3.06,7.72-2.23,2.16-4.66,3.24-7.35,3.24-2.95,0-5.45-1.03-7.5-3.08-2.06-2.38-3.08-4.88-3.08-7.5v-25.05l-.52-4.09c-.22-1.69-.83-3.32-1.79-4.84-.98-1.55-2.45-2.84-4.44-3.92-1.99-1.09-4.46-1.62-7.75-1.62s-5.97.55-8.01,1.69c-1.12.57-1.97,1.12-2.47,1.62-.53.5-1.12,1.2-1.81,2.12-.68.9-1.18,1.73-1.46,2.47-.28.74-.48,1.55-.59,2.47l-.35,4.09c.24.92.35,2.3.35,4.11.57,2.16,1.25,3.79,2.04,4.94,1.23,1.82,2.78,3.22,4.6,4.18,1.82.96,4.38,1.46,7.68,1.46,2.82,0,5.27,1.07,7.31,3.24,2.98,3.15,3.79,6.78,2.41,10.94-.31.92-.83,1.81-1.47,2.54-2.45,2.84-5.1,4.24-8.27,4.24s-6.19-.33-9.03-1.01c-2.86-.68-5.42-1.55-7.68-2.56-4.55-2.51-8.22-5.45-11-8.86-2.78-3.41-4.81-7.22-6.06-11.42-.77-2.39-1.29-4.24-1.51-5.54-.24-1.31-.35-3.39-.35-6.23.24-2.38.48-4.38.77-6.04.28-1.66.63-3.43,1.09-5.36,1.47-4.22,3.52-8.09,6.13-11.6,3.08-3.76,6.82-6.76,11.25-9.03v-.02h.06c4.44-2.27,9.67-3.41,16.37-3.41M610.47,512.78c2.84,0,5.29,1.09,7.33,3.24,2.06,2.17,3.08,4.55,3.08,7.17v50.1c0,2.95-1.09,5.45-3.24,7.5-2.16,2.06-4.53,3.08-7.15,3.08-2.95,0-5.45-1.03-7.5-3.08-2.06-2.38-3.08-4.88-3.08-7.5v-50.1c0-2.84,1.03-5.29,3.08-7.33h-.02c2.38-2.06,4.88-3.08,7.5-3.08M498.7,512.78c2.84,0,5.27,1.09,7.31,3.24,2.06,2.17,3.08,4.55,3.08,7.17v50.1c0,2.95-1.09,5.45-3.24,7.5-2.14,2.06-4.53,3.08-7.15,3.08-2.95,0-5.45-1.03-7.5-3.08-2.06-2.38-3.08-4.88-3.08-7.5v-50.1c0-2.84,1.03-5.29,3.08-7.33,2.38-2.06,4.88-3.08,7.5-3.08M691.98,453.18c-4.54,0-8.95,1.74-12.74,5.04-.29.25-.56.53-.81.81-3.29,3.48-5.02,7.88-5.02,12.74v33.09c-2.03-.79-4.2-1.2-6.48-1.2-7.72,0-14.45,1.44-20.01,4.29-5.38,2.75-10.03,6.48-13.8,11.08-.08.1-.16.19-.23.29-1.49,2.01-2.83,4.12-4.02,6.33v-2.48c0-4.66-1.82-9.04-5.27-12.67-.42-.44-.85-.85-1.29-1.24.04-.03.07-.07.11-.1,3.87-3.68,5.9-8.33,5.9-13.48,0-4.67-1.72-9.06-5.12-13.04-.14-.17-.3-.33-.45-.49-3.65-3.61-8.24-5.52-13.29-5.52-4.63,0-9.01,1.71-13.01,5.1-.17.14-.33.29-.49.45-3.63,3.63-5.55,8.3-5.55,13.5,0,4.78,1.87,9.27,5.41,12.99.5.53,1.01,1.02,1.55,1.48-.16.16-.31.32-.45.48-.39.42-.77.85-1.11,1.29-.58-.83-1.24-1.64-1.98-2.41-3.56-3.75-8.09-5.73-13.11-5.73h-26.93c-.19,0-.39,0-.58.02-4.48.05-9.01.69-13.47,1.93-4.94,1.35-9.75,3.94-14.28,7.7-3.13,2.26-5.93,5.22-8.38,8.83-.23-4.31-2.03-8.35-5.25-11.74-.21-.22-.41-.43-.63-.63.27-.23.53-.47.79-.71,3.87-3.68,5.9-8.33,5.9-13.48,0-4.69-1.74-9.09-5.16-13.06-.13-.15-.27-.3-.41-.44-3.63-3.63-8.24-5.55-13.32-5.55-3.45,0-6.75.95-9.85,2.82v-7.66c0-4.53-1.74-8.92-5.03-12.72-.11-.12-.22-.25-.34-.36-3.51-3.58-8.02-5.47-13.02-5.47-4.36,0-8.6,1.61-12.29,4.65-.3.23-.59.48-.87.75-3.55,3.55-5.42,8.09-5.42,13.14v53c-1.13-1.95-2.46-3.83-3.98-5.61-3.05-4.11-7.43-7.73-13.03-10.77-5.86-3.13-12.86-4.7-20.85-4.7-2.28,0-4.53.44-6.68,1.29v-33.19c0-4.51-1.73-8.9-5.01-12.71-.12-.14-.25-.28-.38-.41-3.53-3.56-8.02-5.44-12.99-5.44-4.46,0-8.79,1.68-12.53,4.86-.2.16-.39.33-.57.51l-.02.02s-.07.07-.1.1c-3.49,3.53-5.33,8.05-5.33,13.06v34.32c-2.95-1.92-6.32-2.92-9.92-2.92-5.16,0-10.4,1.82-14.02,4.87l-.18.14c-.21.17-.42.36-.61.55-3.63,3.63-5.55,8.24-5.55,13.32v26.21c0,1.17-.14,1.77-.2,1.98-.21.71-.32,1.44-.33,2.18-.02.07-.09.23-.25.48-.13.21-.67.93-2.3,2.06-.53.22-1.7.54-3.98.54-3.11,0-4.2-.56-4.21-.57-.02,0-.04-.02-.05-.03-.71-.37-1.31-.93-1.87-1.76-.02-.04-.05-.07-.07-.1-.01-.02-.29-.44-.68-1.68-.04-1.54-.15-2.82-.36-3.94v-25.62c0-4.66-1.82-9.04-5.27-12.67-3.56-3.75-8.1-5.73-13.13-5.73-4.54,0-8.95,1.74-12.74,5.04-.14.12-.28.25-.41.38-3.55,3.55-5.42,8.04-5.42,12.99v3.54c-1.1-1.97-2.4-3.87-3.88-5.68-3.04-4.29-7.41-8.06-12.99-11.21-5.9-3.29-12.94-4.94-20.97-4.94s-14.41,1.47-20.12,4.48c-.02,0-.03.02-.05.02-5.41,2.91-10.04,6.8-13.76,11.58-.07.09-.14.19-.21.29-3.06,4.31-5.48,9.08-7.19,14.18-.09.25-.16.51-.22.78-.51,2.23-.9,4.22-1.2,6.1-.3,1.85-.58,4.15-.84,6.83-.02.25-.04.51-.04.77v52.55c0,4.72,1.78,9.17,5.14,12.86,3.47,3.85,8.04,5.94,13.18,6,.03,0,.07,0,.1,0,.31,0,.62-.02.92-.05,4.43-.2,8.58-2.1,12.02-5.51,3.66-3.6,5.61-8.22,5.61-13.34v-8.52c2.08.8,4.31,1.21,6.66,1.21,8.09,0,15.05-1.6,20.69-4.76,5.42-3,9.91-6.83,13.31-11.35,2.92-3.89,5.21-8.19,6.83-12.8,1.63,4.64,4.03,8.9,7.15,12.7,3.58,4.36,8.24,8.14,13.87,11.23.18.1.37.2.57.28,2.77,1.25,5.94,2.31,9.43,3.15,3.54.86,7.36,1.29,11.35,1.29,8.38,0,15.57-1.58,21.37-4.71,5.67-3.02,10.33-6.82,13.86-11.3,2.35-3,4.31-6.22,5.85-9.63,1.34,2.67,2.98,5.18,4.89,7.51,3.41,4.18,7.9,7.82,13.33,10.8.19.1.38.2.58.29,2.76,1.23,5.8,2.25,9.06,3.04,3.41.82,7.07,1.23,10.89,1.23,7.98,0,14.89-1.51,20.54-4.5,5.44-2.88,9.93-6.54,13.36-10.89,1.49-1.9,2.81-3.89,3.97-5.97v2.75c0,4.54,1.74,8.95,5.04,12.74.12.14.25.28.38.41,3.53,3.53,8.08,5.4,13.15,5.4,4.76,0,9.23-1.91,12.93-5.51.14-.14.28-.28.42-.42.33.44.68.88,1.05,1.3.12.14.25.28.38.41,3.55,3.55,8.09,5.42,13.15,5.42,4.7,0,9.08-1.83,12.68-5.3,3.73-3.56,5.71-8.15,5.71-13.27v-.22c.62.87,1.26,1.72,1.93,2.56,1.88,2.38,4.02,4.54,6.34,6.43.11.09.23.18.35.27,4.18,3.03,8.72,5.47,13.49,7.26.28.11.57.2.86.27,2.08.52,4.18.94,6.26,1.25,1.89.3,4.06.58,6.64.84.27.03.55.04.82.04h26.93c4.67,0,9.06-1.83,12.68-5.3.8-.76,1.52-1.57,2.16-2.43.43.6.89,1.19,1.39,1.76.12.14.25.28.38.41,3.55,3.55,8.09,5.42,13.15,5.42,4.67,0,9.06-1.83,12.68-5.3,3.73-3.54,5.71-8.13,5.71-13.28v-4.08c1.19,2.16,2.59,4.22,4.18,6.15,3.41,4.18,7.9,7.82,13.33,10.8.19.1.38.2.58.29,2.76,1.23,5.8,2.25,9.06,3.04,3.38.82,7.05,1.23,10.89,1.23,7.98,0,14.89-1.51,20.54-4.5,5.44-2.89,9.93-6.54,13.36-10.87,2.15-2.75,3.96-5.68,5.41-8.77,1.51,3.55,3.51,6.86,5.98,9.89,3.41,4.18,7.9,7.81,13.34,10.81.19.11.39.2.59.3,2.77,1.24,5.82,2.26,9.09,3.04,3.4.82,7.06,1.23,10.88,1.23,4.63,0,8.78-1.68,12.38-4.99,3.48,3.27,7.86,4.99,12.71,4.99s9.2-1.9,12.91-5.49c3.5-3.41,5.5-8.31,5.5-13.47v-3.63c1.18,2.15,2.56,4.19,4.13,6.11,3.46,4.21,7.94,7.84,13.34,10.81.19.11.39.21.59.3,2.74,1.23,5.8,2.25,9.08,3.04,3.41.82,7.07,1.23,10.89,1.23,7.98,0,14.89-1.51,20.54-4.5,5.42-2.87,9.92-6.52,13.36-10.87,3.34-4.26,5.84-8.97,7.48-14.02.04-.12.07-.24.11-.36.51-1.87.96-4.07,1.38-6.72.4-2.56.6-4.89.6-6.96,0-.26-.01-.52-.04-.77v-74.88s0-.08,0-.12c-.06-4.45-1.8-8.77-5.03-12.49-.12-.14-.24-.27-.36-.39-3.53-3.56-8.03-5.44-13.01-5.44-4.58,0-8.86,1.69-12.72,5.02-.15.13-.3.26-.44.4-3.53,3.53-5.4,8.08-5.4,13.15v33.09c-2.02-.79-4.19-1.19-6.46-1.19-7.71,0-14.44,1.44-20.01,4.28-5.43,2.78-10.07,6.52-13.8,11.1-.07.09-.15.18-.21.28-2.86,3.85-5.15,8.05-6.82,12.51-1.43-4.14-3.69-8.03-6.73-11.61-3.05-4.11-7.43-7.74-13.04-10.78-5.86-3.13-12.86-4.7-20.85-4.7-7.54,0-13.89,1.3-19.4,3.98-.41.16-.8.36-1.18.59-5.18,2.73-9.65,6.36-13.3,10.82-.08.1-.16.19-.23.29-.58.78-1.14,1.58-1.68,2.4v-51.08c0-4.54-1.74-8.95-5.04-12.74-.12-.13-.23-.26-.36-.39-3.53-3.56-8.03-5.44-13.01-5.44h0ZM554.72,540.76h25.99c4.06,0,7.9-1.38,11.21-4.01v22.23c-3.2-2.59-7.02-3.95-11.19-3.95h-26.14l-3.64-.3c-.15-.03-.38-.09-.7-.2-.02-.01-.21-.11-.53-.35-.09-.07-.18-.14-.28-.2-.66-.46-1.3-1.1-1.91-1.9-.2-.55-.53-1.82-.53-4.27s.41-3.71.76-4.4c.39-.77.83-1.36,1.2-1.59.02-.01.04-.02.05-.03.51-.33.98-.49,1.52-.53.14,0,.28-.02.42-.04l3.78-.46h0ZM661.89,541.85c.11-.07.32-.19.67-.37.09-.05.19-.1.28-.15.37-.2,1.5-.68,4.11-.68,2.24,0,4.41-.42,6.46-1.24v7.7c0,1.13-.13,1.69-.18,1.88-.19.67-.3,1.36-.32,2.06-.03.08-.11.24-.26.49-.03.04-.46.7-2.02,1.76-.46.18-1.55.49-3.7.49-2.37,0-3.63-.38-3.92-.52-.67-.35-1.24-.89-1.76-1.64-.03-.04-.29-.44-.65-1.58-.03-1.27-.12-2.37-.27-3.35l.24-2.82c.03-.22.07-.32.08-.35,0-.02.01-.03.02-.05.04-.08.17-.28.44-.65.45-.61.7-.89.78-.97h0ZM822.58,541.85c.1-.07.32-.19.67-.37.09-.05.19-.1.28-.15.37-.2,1.5-.68,4.11-.68,2.24,0,4.41-.42,6.46-1.24v7.7c0,1.14-.13,1.64-.16,1.76-.22.71-.34,1.45-.35,2.2-.03.07-.09.21-.22.41-.06.1-.5.75-2.06,1.82-.46.18-1.55.49-3.68.49-2.39,0-3.67-.39-3.96-.54-.63-.33-1.19-.86-1.68-1.58-.02-.03-.03-.05-.05-.08,0,0-.28-.42-.63-1.53-.03-1.28-.12-2.39-.27-3.38l.24-2.82c.02-.15.05-.29.09-.41.05-.09.17-.27.38-.56.04-.05.07-.1.11-.15.4-.55.65-.82.73-.91h0ZM407.64,546.32v-6.85c2.08.79,4.33,1.2,6.68,1.2,2.48,0,3.57.45,3.92.64.85.47,1.31.88,1.45,1.11.38.6.59,1.15.68,1.7l.42,3.46c-.03.86-.13,1.28-.16,1.39-.2.68-.31,1.39-.33,2.1-.03.08-.11.24-.26.49-.03.04-.46.7-2.02,1.76-.46.18-1.55.49-3.68.49-2.39,0-3.67-.39-3.96-.54-.64-.34-1.21-.88-1.73-1.63-.03-.04-.3-.45-.67-1.61-.04-1.43-.15-2.65-.33-3.71h0ZM246.41,542.6c.12-.08.34-.22.69-.41.08-.04.16-.09.24-.13.35-.21,1.45-.69,3.97-.69,1.77,0,3.04.21,3.77.63,1.07.61,1.42,1.07,1.52,1.24.42.7.65,1.33.73,1.98l.43,3.71c-.03,1.02-.15,1.54-.19,1.69-.19.69-.29,1.39-.3,2.11-.02.06-.08.28-.3.66-.16.24-.69.92-2.12,1.95-.45.19-1.5.49-3.55.49-2.28,0-4.52.45-6.66,1.32v-8.32l.31-3.76c.04-.28.09-.49.14-.64.04-.08.17-.29.42-.65.02-.03.04-.06.06-.08.39-.55.67-.9.83-1.09h0ZM741.08,542.93c.11-.07.32-.19.67-.37.09-.05.19-.1.28-.15.37-.2,1.5-.68,4.11-.68,1.82,0,3.14.22,3.92.64,1.06.58,1.41,1.01,1.51,1.17.34.55.55,1.08.62,1.61l.45,3.56v7.36c-2.03-.79-4.21-1.2-6.5-1.2-2.9,0-3.92-.52-3.96-.54-.66-.34-1.21-.86-1.7-1.58-.02-.03-.03-.05-.05-.08,0,0-.27-.41-.63-1.55-.03-1.27-.12-2.37-.27-3.35l.24-2.82c.02-.15.05-.29.09-.41.05-.09.17-.27.38-.56.02-.02.03-.04.05-.06.47-.63.72-.91.8-1h0Z"/>
        </g>
      </g>
    </g>
  </g>
</svg>