<?xml version="1.0" encoding="UTF-8"?>
<svg id="Capa_2" data-name="Capa 2" xmlns="http://www.w3.org/2000/svg" viewBox="0 0 288.32 290.79">
  <defs>
    <style>
      .cls-1 {
        fill: #2aa81a;
      }

      .cls-2 {
        fill: #fff;
      }
    </style>
  </defs>
  <g id="Capa_1-2" data-name="Capa 1">
    <path class="cls-1" d="M279.16,145.39c0,73.18-59.32,132.5-132.5,132.5-48.98,0-93.99-11.29-105.18-22.2-1.79-1.75-9.81-10.13-10.34-10.72-5.78-6.44-18.31-51.6-16.98-99.57C15.87,84.15,67.33,12.89,146.66,12.89c73.18,0,132.5,59.32,132.5,132.5Z"/>
    <g id="icon">
      <path class="cls-2" d="M246.85,42.75c-56.1-56.62-147.47-57.05-204.1-.95C-1.8,85.93-12.75,153.79,15.66,209.7L.36,284.03c-.33,1.5-.02,3.08.87,4.33,1.29,1.88,3.59,2.78,5.82,2.3l72.73-17.28c71.36,35.48,157.96,6.4,193.44-64.96,27.46-55.23,16.78-121.81-26.58-165.68h.2ZM224.13,224.07c-34.34,34.25-86.69,42.81-130.15,21.29l-10.15-5.06-44.68,10.59v-.58l9.28-45.06-4.97-9.8c-22.21-43.6-13.81-96.55,20.8-131.14,44.09-44.12,115.59-44.14,159.71-.06.02.02.04.04.06.06l.58.58c43.55,44.22,43.29,115.28-.58,159.19h.12Z"/>
      <path class="cls-2" d="M220.17,191.08c-5.47,8.73-14.14,19.17-24.99,21.79-19.05,4.6-48.26.15-84.74-33.75l-.44-.41c-31.77-29.64-40.17-54.31-38.17-73.89,1.11-11.11,10.36-21.12,18.15-27.72,4.39-3.72,10.96-3.18,14.68,1.2.65.76,1.18,1.61,1.58,2.52l11.81,26.71c1.54,3.5,1.05,7.56-1.28,10.59l-5.82,7.71c-2.53,3.26-2.85,7.72-.81,11.32,5.69,8.34,12.48,15.88,20.19,22.4,9.92,8.96,20.97,17.19,27.93,20.01,3.82,1.54,8.2.62,11.08-2.33l6.84-6.95c2.67-2.73,6.62-3.78,10.3-2.73l27.96,8.03c5.5,1.72,8.57,7.58,6.84,13.09-.27.85-.64,1.66-1.11,2.42h0Z"/>
    </g>
  </g>
</svg>