<?xml version="1.0" encoding="UTF-8"?>
<svg id="Capa_2" data-name="Capa 2" xmlns="http://www.w3.org/2000/svg" viewBox="0 0 16.07 16.2">
  <defs>
    <style>
      .cls-1 {
        fill: #2aa81a;
      }

      .cls-2 {
        fill: #fff;
      }
    </style>
  </defs>
  <g id="Capa_1-2" data-name="Capa 1">
    <path class="cls-1" d="M15.56,8.1c0,4.08-3.31,7.38-7.38,7.38-2.73,0-5.24-.63-5.86-1.24-.1-.1-.55-.56-.58-.6-.32-.36-1.02-2.88-.95-5.55C.88,4.69,3.75.72,8.17.72c4.08,0,7.38,3.31,7.38,7.38Z"/>
    <g id="icon">
      <path class="cls-2" d="M13.76,2.38c-3.13-3.16-8.22-3.18-11.37-.05C-.1,4.79-.71,8.57.87,11.69L.02,15.83c-.02.08,0,.17.05.24.07.1.2.16.32.13l4.05-.96c3.98,1.98,8.8.36,10.78-3.62,1.53-3.08.94-6.79-1.48-9.23h.01ZM12.49,12.49c-1.91,1.91-4.83,2.39-7.25,1.19l-.57-.28-2.49.59v-.03l.52-2.51-.28-.55c-1.24-2.43-.77-5.38,1.16-7.31,2.46-2.46,6.44-2.46,8.9,0,0,0,0,0,0,0l.03.03c2.43,2.46,2.41,6.42-.03,8.87h0Z"/>
      <path class="cls-2" d="M12.27,10.65c-.3.49-.79,1.07-1.39,1.21-1.06.26-2.69,0-4.72-1.88l-.02-.02c-1.77-1.65-2.24-3.03-2.13-4.12.06-.62.58-1.18,1.01-1.54.24-.21.61-.18.82.07.04.04.07.09.09.14l.66,1.49c.09.19.06.42-.07.59l-.32.43c-.14.18-.16.43-.05.63.32.46.7.88,1.13,1.25.55.5,1.17.96,1.56,1.12.21.09.46.03.62-.13l.38-.39c.15-.15.37-.21.57-.15l1.56.45c.31.1.48.42.38.73-.01.05-.04.09-.06.13h0Z"/>
    </g>
  </g>
</svg>